<mxfile host="app.diagrams.net" modified="2022-05-22T21:43:35.867Z" agent="5.0 (Windows NT 10.0; Win64; x64) AppleWebKit/537.36 (KHTML, like Gecko) Chrome/101.0.4951.67 Safari/537.36" etag="fsZaTgCP5lOpZ_ZxQzKo" version="18.1.1" type="github" pages="8">
  <diagram id="qUPmlaSDLw5E5s6Abh2X" name="UseCase">
    <mxGraphModel dx="2844" dy="1544" grid="1" gridSize="10" guides="1" tooltips="1" connect="1" arrows="1" fold="1" page="1" pageScale="1" pageWidth="827" pageHeight="1169" background="#FFFFFF" math="0" shadow="0">
      <root>
        <mxCell id="0" />
        <mxCell id="1" parent="0" />
        <mxCell id="uLyRi9IVPja2gbTCep0T-109" value="BodyTask" style="html=1;labelBackgroundColor=none;labelBorderColor=none;fontSize=20;fontColor=#FF9933;gradientColor=none;" parent="1" vertex="1">
          <mxGeometry x="1020" y="120" width="490" height="140" as="geometry" />
        </mxCell>
        <mxCell id="uLyRi9IVPja2gbTCep0T-74" value="Column" style="html=1;labelBackgroundColor=#66B2FF;labelBorderColor=none;fontSize=20;fontColor=#FF0000;gradientColor=none;" parent="1" vertex="1">
          <mxGeometry x="790" y="390" width="180" height="585" as="geometry" />
        </mxCell>
        <mxCell id="uLyRi9IVPja2gbTCep0T-80" value="Task" style="html=1;labelBackgroundColor=#66B2FF;labelBorderColor=none;fontSize=20;fontColor=#FF0000;gradientColor=none;" parent="1" vertex="1">
          <mxGeometry x="1070" y="560" width="530" height="240" as="geometry" />
        </mxCell>
        <mxCell id="uLyRi9IVPja2gbTCep0T-73" value="Boards" style="html=1;labelBackgroundColor=#66B2FF;labelBorderColor=none;fontColor=#FF0000;gradientColor=none;fontSize=20;" parent="1" vertex="1">
          <mxGeometry x="480" y="440" width="190" height="560" as="geometry" />
        </mxCell>
        <mxCell id="uLyRi9IVPja2gbTCep0T-14" value="ScrumBoardApp" style="shape=umlFrame;whiteSpace=wrap;html=1;width=110;height=30;labelBackgroundColor=#D4E1F5;labelBorderColor=#9AC7BF;fillColor=#f5f5f5;fontColor=#333333;strokeColor=#666666;gradientColor=none;" parent="1" vertex="1">
          <mxGeometry x="120" y="30" width="1520" height="1010" as="geometry" />
        </mxCell>
        <mxCell id="uLyRi9IVPja2gbTCep0T-15" value="Register User" style="shape=umlActor;verticalLabelPosition=bottom;verticalAlign=top;html=1;fontColor=#33FF33;" parent="1" vertex="1">
          <mxGeometry x="40" y="425" width="40" height="80" as="geometry" />
        </mxCell>
        <mxCell id="uLyRi9IVPja2gbTCep0T-26" style="edgeStyle=orthogonalEdgeStyle;rounded=0;orthogonalLoop=1;jettySize=auto;html=1;exitX=0.5;exitY=0.5;exitDx=0;exitDy=0;exitPerimeter=0;entryX=0;entryY=0.5;entryDx=0;entryDy=0;" parent="1" source="uLyRi9IVPja2gbTCep0T-16" target="uLyRi9IVPja2gbTCep0T-19" edge="1">
          <mxGeometry relative="1" as="geometry">
            <Array as="points">
              <mxPoint x="130" y="220" />
              <mxPoint x="130" y="220" />
            </Array>
          </mxGeometry>
        </mxCell>
        <mxCell id="uLyRi9IVPja2gbTCep0T-28" style="edgeStyle=orthogonalEdgeStyle;rounded=0;orthogonalLoop=1;jettySize=auto;html=1;exitX=0.5;exitY=0.5;exitDx=0;exitDy=0;exitPerimeter=0;entryX=0;entryY=0.5;entryDx=0;entryDy=0;" parent="1" source="uLyRi9IVPja2gbTCep0T-16" target="uLyRi9IVPja2gbTCep0T-27" edge="1">
          <mxGeometry relative="1" as="geometry">
            <Array as="points">
              <mxPoint x="200" y="220" />
              <mxPoint x="200" y="100" />
            </Array>
          </mxGeometry>
        </mxCell>
        <mxCell id="pRg4ob5OodB1r5g-rSBu-7" style="edgeStyle=orthogonalEdgeStyle;rounded=0;orthogonalLoop=1;jettySize=auto;html=1;entryX=0;entryY=0.5;entryDx=0;entryDy=0;" edge="1" parent="1" source="uLyRi9IVPja2gbTCep0T-16" target="uLyRi9IVPja2gbTCep0T-20">
          <mxGeometry relative="1" as="geometry">
            <Array as="points">
              <mxPoint x="200" y="220" />
              <mxPoint x="200" y="350" />
            </Array>
          </mxGeometry>
        </mxCell>
        <mxCell id="uLyRi9IVPja2gbTCep0T-16" value="Unregister User" style="shape=umlActor;verticalLabelPosition=bottom;verticalAlign=top;html=1;fontColor=#FF8000;" parent="1" vertex="1">
          <mxGeometry x="40" y="170" width="40" height="100" as="geometry" />
        </mxCell>
        <mxCell id="uLyRi9IVPja2gbTCep0T-125" style="edgeStyle=orthogonalEdgeStyle;rounded=0;orthogonalLoop=1;jettySize=auto;html=1;entryX=-0.001;entryY=0.019;entryDx=0;entryDy=0;entryPerimeter=0;labelBackgroundColor=none;fontSize=20;fontColor=#FF9933;" parent="1" source="uLyRi9IVPja2gbTCep0T-17" target="uLyRi9IVPja2gbTCep0T-14" edge="1">
          <mxGeometry relative="1" as="geometry" />
        </mxCell>
        <mxCell id="uLyRi9IVPja2gbTCep0T-17" value="Administrator" style="shape=umlActor;verticalLabelPosition=bottom;verticalAlign=top;html=1;" parent="1" vertex="1">
          <mxGeometry x="40" y="10" width="40" height="80" as="geometry" />
        </mxCell>
        <mxCell id="uLyRi9IVPja2gbTCep0T-18" style="edgeStyle=orthogonalEdgeStyle;rounded=0;orthogonalLoop=1;jettySize=auto;html=1;exitX=0.5;exitY=0.5;exitDx=0;exitDy=0;exitPerimeter=0;entryX=0.5;entryY=0.5;entryDx=0;entryDy=0;entryPerimeter=0;" parent="1" source="uLyRi9IVPja2gbTCep0T-17" target="uLyRi9IVPja2gbTCep0T-17" edge="1">
          <mxGeometry relative="1" as="geometry" />
        </mxCell>
        <mxCell id="uLyRi9IVPja2gbTCep0T-19" value="Welcome Page" style="ellipse;whiteSpace=wrap;html=1;labelBackgroundColor=none;" parent="1" vertex="1">
          <mxGeometry x="240" y="180" width="150" height="80" as="geometry" />
        </mxCell>
        <mxCell id="uLyRi9IVPja2gbTCep0T-20" value="Login Page" style="ellipse;whiteSpace=wrap;html=1;labelBackgroundColor=none;fontColor=#33FF33;" parent="1" vertex="1">
          <mxGeometry x="240" y="310" width="150" height="80" as="geometry" />
        </mxCell>
        <mxCell id="uLyRi9IVPja2gbTCep0T-22" value="Board" style="ellipse;whiteSpace=wrap;html=1;labelBackgroundColor=none;fontColor=#007FFF;" parent="1" vertex="1">
          <mxGeometry x="240" y="700" width="150" height="80" as="geometry" />
        </mxCell>
        <mxCell id="uLyRi9IVPja2gbTCep0T-27" value="Register Page" style="ellipse;whiteSpace=wrap;html=1;labelBackgroundColor=none;labelBorderColor=none;gradientColor=none;fontColor=#FF8000;" parent="1" vertex="1">
          <mxGeometry x="240" y="60" width="150" height="80" as="geometry" />
        </mxCell>
        <mxCell id="uLyRi9IVPja2gbTCep0T-31" value="Create new Boards" style="ellipse;whiteSpace=wrap;html=1;labelBackgroundColor=none;fontColor=#66FF66;" parent="1" vertex="1">
          <mxGeometry x="500" y="780" width="150" height="80" as="geometry" />
        </mxCell>
        <mxCell id="pRg4ob5OodB1r5g-rSBu-12" style="edgeStyle=orthogonalEdgeStyle;rounded=0;orthogonalLoop=1;jettySize=auto;html=1;entryX=0;entryY=0.5;entryDx=0;entryDy=0;" edge="1" parent="1" source="uLyRi9IVPja2gbTCep0T-37" target="uLyRi9IVPja2gbTCep0T-38">
          <mxGeometry relative="1" as="geometry">
            <mxPoint x="220" y="570" as="targetPoint" />
            <Array as="points">
              <mxPoint x="160" y="680" />
              <mxPoint x="160" y="560" />
            </Array>
          </mxGeometry>
        </mxCell>
        <mxCell id="pRg4ob5OodB1r5g-rSBu-13" style="edgeStyle=orthogonalEdgeStyle;rounded=0;orthogonalLoop=1;jettySize=auto;html=1;entryX=0;entryY=0.5;entryDx=0;entryDy=0;" edge="1" parent="1" source="uLyRi9IVPja2gbTCep0T-37" target="uLyRi9IVPja2gbTCep0T-22">
          <mxGeometry relative="1" as="geometry">
            <Array as="points">
              <mxPoint x="160" y="680" />
              <mxPoint x="160" y="740" />
            </Array>
          </mxGeometry>
        </mxCell>
        <mxCell id="pRg4ob5OodB1r5g-rSBu-14" style="edgeStyle=orthogonalEdgeStyle;rounded=0;orthogonalLoop=1;jettySize=auto;html=1;entryX=0;entryY=0.5;entryDx=0;entryDy=0;" edge="1" parent="1" source="uLyRi9IVPja2gbTCep0T-37" target="uLyRi9IVPja2gbTCep0T-48">
          <mxGeometry relative="1" as="geometry" />
        </mxCell>
        <mxCell id="uLyRi9IVPja2gbTCep0T-37" value="Login User" style="shape=umlActor;verticalLabelPosition=bottom;verticalAlign=top;html=1;fontColor=#007FFF;" parent="1" vertex="1">
          <mxGeometry x="40" y="640" width="40" height="80" as="geometry" />
        </mxCell>
        <mxCell id="uLyRi9IVPja2gbTCep0T-38" value="Unlogining" style="ellipse;whiteSpace=wrap;html=1;labelBackgroundColor=none;fontColor=#007FFF;" parent="1" vertex="1">
          <mxGeometry x="240" y="520" width="150" height="80" as="geometry" />
        </mxCell>
        <mxCell id="uLyRi9IVPja2gbTCep0T-45" value="enter the id or email of another user" style="ellipse;whiteSpace=wrap;html=1;labelBackgroundColor=none;fontColor=#007FFF;rotation=0;" parent="1" vertex="1">
          <mxGeometry x="235" y="900" width="160" height="80" as="geometry" />
        </mxCell>
        <mxCell id="uLyRi9IVPja2gbTCep0T-46" value="Add Columns" style="ellipse;whiteSpace=wrap;html=1;labelBackgroundColor=none;fontColor=#007FFF;" parent="1" vertex="1">
          <mxGeometry x="805" y="425" width="150" height="80" as="geometry" />
        </mxCell>
        <mxCell id="uLyRi9IVPja2gbTCep0T-47" value="Rename Coumns" style="ellipse;whiteSpace=wrap;html=1;labelBackgroundColor=none;fontColor=#007FFF;" parent="1" vertex="1">
          <mxGeometry x="805" y="545" width="150" height="80" as="geometry" />
        </mxCell>
        <mxCell id="uLyRi9IVPja2gbTCep0T-48" value="Change Account Data" style="ellipse;whiteSpace=wrap;html=1;labelBackgroundColor=none;fontColor=#007FFF;" parent="1" vertex="1">
          <mxGeometry x="240" y="610" width="150" height="80" as="geometry" />
        </mxCell>
        <mxCell id="uLyRi9IVPja2gbTCep0T-50" value="Rename Boards" style="ellipse;whiteSpace=wrap;html=1;labelBackgroundColor=none;fontColor=#007FFF;" parent="1" vertex="1">
          <mxGeometry x="500" y="450" width="150" height="80" as="geometry" />
        </mxCell>
        <mxCell id="uLyRi9IVPja2gbTCep0T-51" value="Delete Boards" style="ellipse;whiteSpace=wrap;html=1;labelBackgroundColor=none;fontColor=#007FFF;" parent="1" vertex="1">
          <mxGeometry x="500" y="540" width="150" height="80" as="geometry" />
        </mxCell>
        <mxCell id="uLyRi9IVPja2gbTCep0T-61" value="Delete Columns" style="ellipse;whiteSpace=wrap;html=1;labelBackgroundColor=none;fontColor=#007FFF;" parent="1" vertex="1">
          <mxGeometry x="805" y="700" width="150" height="80" as="geometry" />
        </mxCell>
        <mxCell id="uLyRi9IVPja2gbTCep0T-64" value="Add Task" style="ellipse;whiteSpace=wrap;html=1;labelBackgroundColor=none;fontColor=#007FFF;" parent="1" vertex="1">
          <mxGeometry x="1091" y="690" width="150" height="80" as="geometry" />
        </mxCell>
        <mxCell id="uLyRi9IVPja2gbTCep0T-65" value="Rename Task" style="ellipse;whiteSpace=wrap;html=1;labelBackgroundColor=none;fontColor=#007FFF;" parent="1" vertex="1">
          <mxGeometry x="1091" y="570" width="150" height="80" as="geometry" />
        </mxCell>
        <mxCell id="uLyRi9IVPja2gbTCep0T-70" value="include" style="endArrow=open;endSize=12;dashed=1;html=1;rounded=0;labelBackgroundColor=none;fontColor=#007FFF;entryX=0.308;entryY=0;entryDx=0;entryDy=0;entryPerimeter=0;exitX=0.5;exitY=1;exitDx=0;exitDy=0;" parent="1" source="uLyRi9IVPja2gbTCep0T-64" target="uLyRi9IVPja2gbTCep0T-86" edge="1">
          <mxGeometry width="160" relative="1" as="geometry">
            <mxPoint x="1130" y="860" as="sourcePoint" />
            <mxPoint x="1089.9999999999932" y="590" as="targetPoint" />
          </mxGeometry>
        </mxCell>
        <mxCell id="uLyRi9IVPja2gbTCep0T-71" value="Move Task" style="ellipse;whiteSpace=wrap;html=1;labelBackgroundColor=none;fontColor=#007FFF;" parent="1" vertex="1">
          <mxGeometry x="1270" y="710" width="150" height="80" as="geometry" />
        </mxCell>
        <mxCell id="uLyRi9IVPja2gbTCep0T-83" value="Move Columns" style="ellipse;whiteSpace=wrap;html=1;labelBackgroundColor=none;fontColor=#007FFF;" parent="1" vertex="1">
          <mxGeometry x="805" y="790" width="150" height="80" as="geometry" />
        </mxCell>
        <mxCell id="uLyRi9IVPja2gbTCep0T-84" value="Change Task" style="ellipse;whiteSpace=wrap;html=1;labelBackgroundColor=none;fontColor=#007FFF;" parent="1" vertex="1">
          <mxGeometry x="1270" y="570" width="150" height="80" as="geometry" />
        </mxCell>
        <mxCell id="uLyRi9IVPja2gbTCep0T-85" value="Send Task to @mail" style="ellipse;whiteSpace=wrap;html=1;labelBackgroundColor=none;fontColor=#007FFF;" parent="1" vertex="1">
          <mxGeometry x="1440" y="570" width="150" height="80" as="geometry" />
        </mxCell>
        <mxCell id="uLyRi9IVPja2gbTCep0T-86" value="Create Name" style="ellipse;whiteSpace=wrap;html=1;labelBackgroundColor=none;labelBorderColor=none;fontSize=20;fontColor=#FF9933;gradientColor=none;" parent="1" vertex="1">
          <mxGeometry x="1270" y="890" width="130" height="50" as="geometry" />
        </mxCell>
        <mxCell id="uLyRi9IVPja2gbTCep0T-87" value="Extends" style="endArrow=block;endSize=16;endFill=0;html=1;rounded=0;labelBackgroundColor=none;fontSize=20;fontColor=#FF9933;exitX=-0.008;exitY=0.825;exitDx=0;exitDy=0;entryX=0.995;entryY=0.629;entryDx=0;entryDy=0;exitPerimeter=0;entryPerimeter=0;" parent="1" source="uLyRi9IVPja2gbTCep0T-80" target="uLyRi9IVPja2gbTCep0T-74" edge="1">
          <mxGeometry width="160" relative="1" as="geometry">
            <mxPoint x="1170" y="420" as="sourcePoint" />
            <mxPoint x="1330" y="420" as="targetPoint" />
          </mxGeometry>
        </mxCell>
        <mxCell id="uLyRi9IVPja2gbTCep0T-89" value="Change Body" style="ellipse;whiteSpace=wrap;html=1;labelBackgroundColor=none;fontColor=#007FFF;" parent="1" vertex="1">
          <mxGeometry x="1290" y="350" width="140" height="60" as="geometry" />
        </mxCell>
        <mxCell id="uLyRi9IVPja2gbTCep0T-91" value="Add body" style="ellipse;whiteSpace=wrap;html=1;labelBackgroundColor=none;fontColor=#007FFF;" parent="1" vertex="1">
          <mxGeometry x="1055" y="340" width="140" height="60" as="geometry" />
        </mxCell>
        <mxCell id="uLyRi9IVPja2gbTCep0T-95" value="Store Location of Tasks" style="ellipse;whiteSpace=wrap;html=1;labelBackgroundColor=none;fontColor=#007FFF;" parent="1" vertex="1">
          <mxGeometry x="805" y="880" width="150" height="80" as="geometry" />
        </mxCell>
        <mxCell id="uLyRi9IVPja2gbTCep0T-66" value="Delete Task" style="ellipse;whiteSpace=wrap;html=1;labelBackgroundColor=none;fontColor=#007FFF;" parent="1" vertex="1">
          <mxGeometry x="1440" y="690" width="150" height="80" as="geometry" />
        </mxCell>
        <mxCell id="uLyRi9IVPja2gbTCep0T-102" value="Store Location of Column" style="ellipse;whiteSpace=wrap;html=1;labelBackgroundColor=none;fontColor=#007FFF;" parent="1" vertex="1">
          <mxGeometry x="500" y="630" width="150" height="80" as="geometry" />
        </mxCell>
        <mxCell id="uLyRi9IVPja2gbTCep0T-104" value="Extends" style="endArrow=block;endSize=16;endFill=0;html=1;rounded=0;labelBackgroundColor=none;fontSize=20;fontColor=#FF9933;entryX=1.006;entryY=0.146;entryDx=0;entryDy=0;entryPerimeter=0;" parent="1" target="uLyRi9IVPja2gbTCep0T-73" edge="1">
          <mxGeometry x="-0.1574" y="-14" width="160" relative="1" as="geometry">
            <mxPoint x="790" y="520" as="sourcePoint" />
            <mxPoint x="645" y="810" as="targetPoint" />
            <Array as="points" />
            <mxPoint as="offset" />
          </mxGeometry>
        </mxCell>
        <mxCell id="uLyRi9IVPja2gbTCep0T-105" value="Discription" style="ellipse;whiteSpace=wrap;html=1;labelBackgroundColor=none;fontColor=#007FFF;" parent="1" vertex="1">
          <mxGeometry x="1090" y="130" width="140" height="60" as="geometry" />
        </mxCell>
        <mxCell id="uLyRi9IVPja2gbTCep0T-107" value="Files" style="ellipse;whiteSpace=wrap;html=1;labelBackgroundColor=none;fontColor=#007FFF;" parent="1" vertex="1">
          <mxGeometry x="1310" y="130" width="140" height="60" as="geometry" />
        </mxCell>
        <mxCell id="uLyRi9IVPja2gbTCep0T-108" value="Data time" style="ellipse;whiteSpace=wrap;html=1;labelBackgroundColor=none;fontColor=#007FFF;" parent="1" vertex="1">
          <mxGeometry x="1360" y="195" width="140" height="60" as="geometry" />
        </mxCell>
        <mxCell id="uLyRi9IVPja2gbTCep0T-110" style="edgeStyle=orthogonalEdgeStyle;rounded=0;orthogonalLoop=1;jettySize=auto;html=1;exitX=0.5;exitY=1;exitDx=0;exitDy=0;labelBackgroundColor=none;fontSize=20;fontColor=#FF9933;" parent="1" source="uLyRi9IVPja2gbTCep0T-107" target="uLyRi9IVPja2gbTCep0T-107" edge="1">
          <mxGeometry relative="1" as="geometry" />
        </mxCell>
        <mxCell id="uLyRi9IVPja2gbTCep0T-111" value="Name" style="ellipse;whiteSpace=wrap;html=1;labelBackgroundColor=none;fontColor=#007FFF;" parent="1" vertex="1">
          <mxGeometry x="1030" y="190" width="140" height="60" as="geometry" />
        </mxCell>
        <mxCell id="uLyRi9IVPja2gbTCep0T-114" value="Text" style="ellipse;whiteSpace=wrap;html=1;labelBackgroundColor=none;fontColor=#007FFF;" parent="1" vertex="1">
          <mxGeometry x="1195" y="205" width="140" height="50" as="geometry" />
        </mxCell>
        <mxCell id="uLyRi9IVPja2gbTCep0T-115" value="keyword @mail" style="ellipse;whiteSpace=wrap;html=1;fontColor=#007FFF;labelBackgroundColor=none;" parent="1" vertex="1">
          <mxGeometry x="1455" y="460" width="120" height="60" as="geometry" />
        </mxCell>
        <mxCell id="uLyRi9IVPja2gbTCep0T-117" value="Convert to sms" style="ellipse;whiteSpace=wrap;html=1;fontColor=#007FFF;labelBackgroundColor=none;" parent="1" vertex="1">
          <mxGeometry x="1455" y="300" width="120" height="60" as="geometry" />
        </mxCell>
        <mxCell id="uLyRi9IVPja2gbTCep0T-119" value="give access to my board" style="ellipse;whiteSpace=wrap;html=1;labelBackgroundColor=none;fontColor=#007FFF;" parent="1" vertex="1">
          <mxGeometry x="500" y="900" width="150" height="80" as="geometry" />
        </mxCell>
        <mxCell id="pRg4ob5OodB1r5g-rSBu-3" value="have registration" style="ellipse;whiteSpace=wrap;html=1;labelBackgroundColor=none;" vertex="1" parent="1">
          <mxGeometry x="500" y="310" width="150" height="80" as="geometry" />
        </mxCell>
        <mxCell id="pRg4ob5OodB1r5g-rSBu-8" value="&amp;lt;&amp;lt;include&amp;gt;&amp;gt;" style="html=1;verticalAlign=bottom;labelBackgroundColor=none;endArrow=open;endFill=0;dashed=1;rounded=0;exitX=0.5;exitY=1;exitDx=0;exitDy=0;entryX=0.553;entryY=0.579;entryDx=0;entryDy=0;entryPerimeter=0;" edge="1" parent="1" source="pRg4ob5OodB1r5g-rSBu-3" target="uLyRi9IVPja2gbTCep0T-15">
          <mxGeometry width="160" relative="1" as="geometry">
            <mxPoint x="170" y="350.0000000000002" as="sourcePoint" />
            <mxPoint x="325.0000000000002" y="560" as="targetPoint" />
            <Array as="points" />
          </mxGeometry>
        </mxCell>
        <mxCell id="pRg4ob5OodB1r5g-rSBu-9" value="&amp;lt;&amp;lt;keyword&amp;gt;&amp;gt;" style="endArrow=open;startArrow=none;endFill=0;startFill=0;endSize=8;html=1;verticalAlign=bottom;dashed=1;labelBackgroundColor=none;rounded=0;exitX=1;exitY=0.587;exitDx=0;exitDy=0;exitPerimeter=0;entryX=0.5;entryY=0;entryDx=0;entryDy=0;" edge="1" parent="1" source="uLyRi9IVPja2gbTCep0T-27" target="pRg4ob5OodB1r5g-rSBu-3">
          <mxGeometry width="160" relative="1" as="geometry">
            <mxPoint x="350" y="400" as="sourcePoint" />
            <mxPoint x="510" y="400" as="targetPoint" />
          </mxGeometry>
        </mxCell>
        <mxCell id="pRg4ob5OodB1r5g-rSBu-15" value="Extends" style="endArrow=block;endSize=16;endFill=0;html=1;rounded=0;labelBackgroundColor=none;fontSize=20;fontColor=#FF9933;entryX=1;entryY=0.5;entryDx=0;entryDy=0;" edge="1" parent="1" target="uLyRi9IVPja2gbTCep0T-22">
          <mxGeometry width="160" relative="1" as="geometry">
            <mxPoint x="480" y="740" as="sourcePoint" />
            <mxPoint x="245.00000000000432" y="739.57" as="targetPoint" />
            <Array as="points" />
          </mxGeometry>
        </mxCell>
        <mxCell id="pRg4ob5OodB1r5g-rSBu-16" value="Another Login User" style="shape=umlActor;verticalLabelPosition=bottom;verticalAlign=top;html=1;fontColor=#007FFF;" vertex="1" parent="1">
          <mxGeometry x="40" y="800" width="40" height="80" as="geometry" />
        </mxCell>
        <mxCell id="pRg4ob5OodB1r5g-rSBu-20" value="Extends" style="endArrow=block;endSize=16;endFill=0;html=1;rounded=0;labelBackgroundColor=none;fontSize=20;fontColor=#FF9933;exitX=0;exitY=0.5;exitDx=0;exitDy=0;" edge="1" parent="1" source="uLyRi9IVPja2gbTCep0T-45" target="pRg4ob5OodB1r5g-rSBu-16">
          <mxGeometry width="160" relative="1" as="geometry">
            <mxPoint x="490" y="750" as="sourcePoint" />
            <mxPoint x="400" y="750" as="targetPoint" />
            <Array as="points" />
          </mxGeometry>
        </mxCell>
        <mxCell id="pRg4ob5OodB1r5g-rSBu-21" value="&amp;lt;&amp;lt;include&amp;gt;&amp;gt;" style="html=1;verticalAlign=bottom;labelBackgroundColor=none;endArrow=open;endFill=0;dashed=1;rounded=0;exitX=0;exitY=0.5;exitDx=0;exitDy=0;entryX=1;entryY=0.5;entryDx=0;entryDy=0;" edge="1" parent="1" source="uLyRi9IVPja2gbTCep0T-119" target="uLyRi9IVPja2gbTCep0T-45">
          <mxGeometry width="160" relative="1" as="geometry">
            <mxPoint x="70" y="580" as="sourcePoint" />
            <mxPoint x="300" y="400" as="targetPoint" />
            <Array as="points" />
          </mxGeometry>
        </mxCell>
        <mxCell id="pRg4ob5OodB1r5g-rSBu-22" value="include" style="endArrow=open;endSize=12;dashed=1;html=1;rounded=0;labelBackgroundColor=none;fontColor=#007FFF;exitX=0;exitY=1;exitDx=0;exitDy=0;entryX=1;entryY=0;entryDx=0;entryDy=0;" edge="1" parent="1" source="uLyRi9IVPja2gbTCep0T-46" target="uLyRi9IVPja2gbTCep0T-102">
          <mxGeometry width="160" relative="1" as="geometry">
            <mxPoint x="720" y="585" as="sourcePoint" />
            <mxPoint x="670" y="645" as="targetPoint" />
          </mxGeometry>
        </mxCell>
        <mxCell id="pRg4ob5OodB1r5g-rSBu-23" value="include" style="endArrow=open;endSize=12;dashed=1;html=1;rounded=0;labelBackgroundColor=none;fontColor=#007FFF;entryX=1;entryY=0.5;entryDx=0;entryDy=0;exitX=0;exitY=0.5;exitDx=0;exitDy=0;" edge="1" parent="1" source="uLyRi9IVPja2gbTCep0T-61" target="uLyRi9IVPja2gbTCep0T-102">
          <mxGeometry width="160" relative="1" as="geometry">
            <mxPoint x="750" y="620" as="sourcePoint" />
            <mxPoint x="700" y="680" as="targetPoint" />
          </mxGeometry>
        </mxCell>
        <mxCell id="pRg4ob5OodB1r5g-rSBu-24" value="include" style="endArrow=open;endSize=12;dashed=1;html=1;rounded=0;labelBackgroundColor=none;fontColor=#007FFF;exitX=0;exitY=0.5;exitDx=0;exitDy=0;entryX=1;entryY=1;entryDx=0;entryDy=0;" edge="1" parent="1" source="uLyRi9IVPja2gbTCep0T-83" target="uLyRi9IVPja2gbTCep0T-102">
          <mxGeometry width="160" relative="1" as="geometry">
            <mxPoint x="760" y="630" as="sourcePoint" />
            <mxPoint x="710" y="690" as="targetPoint" />
          </mxGeometry>
        </mxCell>
        <mxCell id="pRg4ob5OodB1r5g-rSBu-25" value="Extends" style="endArrow=block;endSize=16;endFill=0;html=1;rounded=0;labelBackgroundColor=none;fontSize=20;fontColor=#FF9933;exitX=0;exitY=0.5;exitDx=0;exitDy=0;entryX=1;entryY=0.5;entryDx=0;entryDy=0;" edge="1" parent="1" source="pRg4ob5OodB1r5g-rSBu-3" target="uLyRi9IVPja2gbTCep0T-20">
          <mxGeometry x="-0.1574" y="-14" width="160" relative="1" as="geometry">
            <mxPoint x="800" y="529.8699999999999" as="sourcePoint" />
            <mxPoint x="681.1400000000001" y="531.7600000000002" as="targetPoint" />
            <Array as="points" />
            <mxPoint as="offset" />
          </mxGeometry>
        </mxCell>
        <mxCell id="pRg4ob5OodB1r5g-rSBu-26" value="Extends" style="endArrow=block;endSize=16;endFill=0;html=1;rounded=0;labelBackgroundColor=none;fontSize=20;fontColor=#FF9933;exitX=0.5;exitY=0;exitDx=0;exitDy=0;exitPerimeter=0;" edge="1" parent="1" source="uLyRi9IVPja2gbTCep0T-37" target="uLyRi9IVPja2gbTCep0T-15">
          <mxGeometry x="-0.1574" y="-14" width="160" relative="1" as="geometry">
            <mxPoint x="800" y="529.8699999999999" as="sourcePoint" />
            <mxPoint x="681.1400000000001" y="531.7600000000002" as="targetPoint" />
            <Array as="points" />
            <mxPoint as="offset" />
          </mxGeometry>
        </mxCell>
        <mxCell id="pRg4ob5OodB1r5g-rSBu-27" value="&amp;lt;&amp;lt;keyword&amp;gt;&amp;gt;" style="endArrow=open;startArrow=none;endFill=0;startFill=0;endSize=8;html=1;verticalAlign=bottom;dashed=1;labelBackgroundColor=none;rounded=0;entryX=0;entryY=1;entryDx=0;entryDy=0;" edge="1" parent="1" target="uLyRi9IVPja2gbTCep0T-20">
          <mxGeometry width="160" relative="1" as="geometry">
            <mxPoint x="60" y="570" as="sourcePoint" />
            <mxPoint x="305" y="513.04" as="targetPoint" />
          </mxGeometry>
        </mxCell>
        <mxCell id="pRg4ob5OodB1r5g-rSBu-28" value="include" style="endArrow=open;endSize=12;dashed=1;html=1;rounded=0;labelBackgroundColor=none;fontColor=#007FFF;exitX=0;exitY=1;exitDx=0;exitDy=0;" edge="1" parent="1" source="uLyRi9IVPja2gbTCep0T-64" target="uLyRi9IVPja2gbTCep0T-95">
          <mxGeometry width="160" relative="1" as="geometry">
            <mxPoint x="836.9669914110091" y="503.28427124746213" as="sourcePoint" />
            <mxPoint x="638.0330085889909" y="651.7157287525383" as="targetPoint" />
          </mxGeometry>
        </mxCell>
        <mxCell id="pRg4ob5OodB1r5g-rSBu-29" value="include" style="endArrow=open;endSize=12;dashed=1;html=1;rounded=0;labelBackgroundColor=none;fontColor=#007FFF;exitX=0;exitY=0.5;exitDx=0;exitDy=0;entryX=1;entryY=0.5;entryDx=0;entryDy=0;" edge="1" parent="1" source="uLyRi9IVPja2gbTCep0T-71" target="uLyRi9IVPja2gbTCep0T-95">
          <mxGeometry width="160" relative="1" as="geometry">
            <mxPoint x="1122.966991411009" y="768.2842712474621" as="sourcePoint" />
            <mxPoint x="935.6452445803166" y="898.2610127290995" as="targetPoint" />
          </mxGeometry>
        </mxCell>
        <mxCell id="pRg4ob5OodB1r5g-rSBu-30" value="include" style="endArrow=open;endSize=12;dashed=1;html=1;rounded=0;labelBackgroundColor=none;fontColor=#007FFF;entryX=1;entryY=1;entryDx=0;entryDy=0;exitX=0.467;exitY=1;exitDx=0;exitDy=0;exitPerimeter=0;" edge="1" parent="1" source="uLyRi9IVPja2gbTCep0T-66" target="uLyRi9IVPja2gbTCep0T-95">
          <mxGeometry width="160" relative="1" as="geometry">
            <mxPoint x="1410" y="830" as="sourcePoint" />
            <mxPoint x="965" y="930" as="targetPoint" />
          </mxGeometry>
        </mxCell>
        <mxCell id="pRg4ob5OodB1r5g-rSBu-31" value="Extends" style="endArrow=block;endSize=16;endFill=0;html=1;rounded=0;labelBackgroundColor=none;fontSize=20;fontColor=#FF9933;exitX=0.5;exitY=1;exitDx=0;exitDy=0;" edge="1" parent="1" source="uLyRi9IVPja2gbTCep0T-117">
          <mxGeometry width="160" relative="1" as="geometry">
            <mxPoint x="1075.7599999999998" y="768" as="sourcePoint" />
            <mxPoint x="1515" y="460" as="targetPoint" />
          </mxGeometry>
        </mxCell>
        <mxCell id="pRg4ob5OodB1r5g-rSBu-33" value="include" style="endArrow=open;endSize=12;dashed=1;html=1;rounded=0;labelBackgroundColor=none;fontColor=#007FFF;exitX=0.5;exitY=0;exitDx=0;exitDy=0;entryX=0.5;entryY=1;entryDx=0;entryDy=0;" edge="1" parent="1" source="uLyRi9IVPja2gbTCep0T-85" target="uLyRi9IVPja2gbTCep0T-115">
          <mxGeometry width="160" relative="1" as="geometry">
            <mxPoint x="1355" y="580" as="sourcePoint" />
            <mxPoint x="1370" y="440" as="targetPoint" />
          </mxGeometry>
        </mxCell>
        <mxCell id="pRg4ob5OodB1r5g-rSBu-34" value="Extends" style="endArrow=block;endSize=16;endFill=0;html=1;rounded=0;labelBackgroundColor=none;fontSize=20;fontColor=#FF9933;exitX=0.5;exitY=1;exitDx=0;exitDy=0;entryX=0.5;entryY=0;entryDx=0;entryDy=0;" edge="1" parent="1" source="uLyRi9IVPja2gbTCep0T-91" target="uLyRi9IVPja2gbTCep0T-84">
          <mxGeometry width="160" relative="1" as="geometry">
            <mxPoint x="1525" y="370" as="sourcePoint" />
            <mxPoint x="1525" y="470" as="targetPoint" />
          </mxGeometry>
        </mxCell>
        <mxCell id="pRg4ob5OodB1r5g-rSBu-35" value="Extends" style="endArrow=block;endSize=16;endFill=0;html=1;rounded=0;labelBackgroundColor=none;fontSize=20;fontColor=#FF9933;exitX=0.5;exitY=1;exitDx=0;exitDy=0;" edge="1" parent="1" source="uLyRi9IVPja2gbTCep0T-89">
          <mxGeometry width="160" relative="1" as="geometry">
            <mxPoint x="1265" y="430" as="sourcePoint" />
            <mxPoint x="1350" y="570" as="targetPoint" />
          </mxGeometry>
        </mxCell>
        <mxCell id="pRg4ob5OodB1r5g-rSBu-36" value="include" style="endArrow=open;endSize=12;dashed=1;html=1;rounded=0;labelBackgroundColor=none;fontColor=#007FFF;entryX=0.5;entryY=1;entryDx=0;entryDy=0;exitX=0.5;exitY=0;exitDx=0;exitDy=0;" edge="1" parent="1" source="uLyRi9IVPja2gbTCep0T-91" target="uLyRi9IVPja2gbTCep0T-111">
          <mxGeometry width="160" relative="1" as="geometry">
            <mxPoint x="1180" y="530" as="sourcePoint" />
            <mxPoint x="1200" y="420" as="targetPoint" />
          </mxGeometry>
        </mxCell>
        <mxCell id="pRg4ob5OodB1r5g-rSBu-37" value="Extends" style="endArrow=block;endSize=16;endFill=0;html=1;rounded=0;labelBackgroundColor=none;fontSize=20;fontColor=#FF9933;exitX=0.449;exitY=1.017;exitDx=0;exitDy=0;entryX=0.5;entryY=0;entryDx=0;entryDy=0;exitPerimeter=0;" edge="1" parent="1" source="uLyRi9IVPja2gbTCep0T-109" target="uLyRi9IVPja2gbTCep0T-89">
          <mxGeometry width="160" relative="1" as="geometry">
            <mxPoint x="1135" y="410" as="sourcePoint" />
            <mxPoint x="1355" y="580" as="targetPoint" />
          </mxGeometry>
        </mxCell>
      </root>
    </mxGraphModel>
  </diagram>
  <diagram id="Z34OHi6Wktxm36wKiyyq" name="Mockup_Welcome_Page">
    <mxGraphModel dx="1422" dy="772" grid="1" gridSize="10" guides="1" tooltips="1" connect="1" arrows="1" fold="1" page="1" pageScale="1" pageWidth="827" pageHeight="1169" math="0" shadow="0">
      <root>
        <mxCell id="0" />
        <mxCell id="1" parent="0" />
        <UserObject label="" link="data:page/id,nGllJwXl_aKc9Nv57PwL" id="AbebpnNf3NId4tLL-i8--9">
          <mxCell style="strokeWidth=1;shadow=0;dashed=0;align=center;html=1;shape=mxgraph.mockup.containers.browserWindow;rSize=0;strokeColor=#666666;strokeColor2=#008cff;strokeColor3=#c4c4c4;mainText=,;recursiveResize=0;labelBackgroundColor=default;labelBorderColor=#FFFFFF;" parent="1" vertex="1">
            <mxGeometry x="40" y="40" width="760" height="560" as="geometry" />
          </mxCell>
        </UserObject>
        <mxCell id="AbebpnNf3NId4tLL-i8--10" value="ScrumBoard" style="strokeWidth=1;shadow=0;dashed=0;align=center;html=1;shape=mxgraph.mockup.containers.anchor;fontSize=17;fontColor=#666666;align=left;" parent="AbebpnNf3NId4tLL-i8--9" vertex="1">
          <mxGeometry x="60" y="12" width="110" height="26" as="geometry" />
        </mxCell>
        <mxCell id="AbebpnNf3NId4tLL-i8--11" value="https://{home}/" style="strokeWidth=1;shadow=0;dashed=0;align=center;html=1;shape=mxgraph.mockup.containers.anchor;rSize=0;fontSize=17;fontColor=#666666;align=left;" parent="AbebpnNf3NId4tLL-i8--9" vertex="1">
          <mxGeometry x="130" y="60" width="250" height="26" as="geometry" />
        </mxCell>
        <mxCell id="AbebpnNf3NId4tLL-i8--12" value="&lt;font style=&quot;font-size: 16px;&quot;&gt;&lt;b&gt;Hello Dear friend!&lt;br&gt;ScrumBoardApp helps you efficiently solve work Tasks&lt;/b&gt;&lt;/font&gt;" style="text;spacingTop=-5;whiteSpace=wrap;html=1;align=center;fontSize=12;fontFamily=Helvetica;fillColor=none;strokeColor=none;" parent="AbebpnNf3NId4tLL-i8--9" vertex="1">
          <mxGeometry y="190" width="760" height="50" as="geometry" />
        </mxCell>
        <object label="Register" link="data:page/id,nGllJwXl_aKc9Nv57PwL" id="AbebpnNf3NId4tLL-i8--15">
          <mxCell style="strokeWidth=1;shadow=0;dashed=0;align=center;html=1;shape=mxgraph.mockup.buttons.button;strokeColor=#666666;fontColor=#ffffff;mainText=;buttonStyle=round;fontSize=17;fontStyle=1;fillColor=#008cff;whiteSpace=wrap;points=[];" parent="AbebpnNf3NId4tLL-i8--9" vertex="1">
            <mxGeometry x="630" y="120" width="90" height="30" as="geometry" />
          </mxCell>
        </object>
        <UserObject label="" link="data:page/id,nGllJwXl_aKc9Nv57PwL" id="AbebpnNf3NId4tLL-i8--16">
          <mxCell style="strokeWidth=1;shadow=0;dashed=0;align=center;html=1;shape=mxgraph.mockup.buttons.multiButton;fillColor=#008cff;strokeColor=#666666;mainText=;subText=;fontSize=16;" parent="AbebpnNf3NId4tLL-i8--9" vertex="1">
            <mxGeometry x="305" y="400" width="150" height="50" as="geometry" />
          </mxCell>
        </UserObject>
        <mxCell id="AbebpnNf3NId4tLL-i8--17" value="Register" style="strokeWidth=1;shadow=0;dashed=0;align=center;html=1;shape=mxgraph.mockup.anchor;fontSize=16;fontColor=#ffffff;fontStyle=1;whiteSpace=wrap;" parent="AbebpnNf3NId4tLL-i8--16" vertex="1">
          <mxGeometry y="8" width="150" height="20" as="geometry" />
        </mxCell>
        <mxCell id="AbebpnNf3NId4tLL-i8--18" value="Registration is Free" style="strokeWidth=1;shadow=0;dashed=0;align=center;html=1;shape=mxgraph.mockup.anchor;fontSize=12;fontColor=#ffffff;fontStyle=1;whiteSpace=wrap;" parent="AbebpnNf3NId4tLL-i8--16" vertex="1">
          <mxGeometry y="30" width="150" height="10" as="geometry" />
        </mxCell>
        <mxCell id="AbebpnNf3NId4tLL-i8--19" value="" style="verticalLabelPosition=bottom;shadow=0;dashed=0;align=center;html=1;verticalAlign=top;strokeWidth=1;shape=mxgraph.mockup.markup.line;strokeColor=#999999;fontSize=16;" parent="AbebpnNf3NId4tLL-i8--9" vertex="1">
          <mxGeometry y="150" width="760" height="20" as="geometry" />
        </mxCell>
        <UserObject label="" link="data:page/id,Z34OHi6Wktxm36wKiyyq" id="AbebpnNf3NId4tLL-i8--25">
          <mxCell style="group" parent="AbebpnNf3NId4tLL-i8--9" vertex="1" connectable="0">
            <mxGeometry x="40" y="116" width="120" height="38" as="geometry" />
          </mxCell>
        </UserObject>
        <mxCell id="AbebpnNf3NId4tLL-i8--24" value="Logo" style="strokeWidth=1;shadow=0;dashed=0;align=center;html=1;shape=mxgraph.mockup.buttons.button;mainText=;buttonStyle=round;fontSize=17;fontStyle=1;whiteSpace=wrap;strokeColor=#FFFFFF;fontColor=#008CFF;" parent="AbebpnNf3NId4tLL-i8--25" vertex="1">
          <mxGeometry x="30" y="8" width="90" height="30" as="geometry" />
        </mxCell>
        <mxCell id="AbebpnNf3NId4tLL-i8--23" value="" style="sketch=0;shadow=0;dashed=0;html=1;strokeColor=none;labelPosition=center;verticalLabelPosition=bottom;verticalAlign=top;align=center;shape=mxgraph.mscae.cloud.hockeyapp;fillColor=#0079D6;pointerEvents=1;fontSize=16;fontColor=#008CFF;" parent="AbebpnNf3NId4tLL-i8--25" vertex="1">
          <mxGeometry width="50" height="38" as="geometry" />
        </mxCell>
        <mxCell id="AbebpnNf3NId4tLL-i8--26" value="&lt;blockquote style=&quot;margin: 0px 0px 0px 40px; border: none; padding: 0px; font-size: 13px;&quot;&gt;&lt;div style=&quot;&quot;&gt;&lt;font style=&quot;font-size: 13px;&quot; color=&quot;#000000&quot;&gt;Our application will help you organize your workflow.&amp;nbsp;&lt;/font&gt;&lt;/div&gt;&lt;div style=&quot;&quot;&gt;&lt;font style=&quot;font-size: 13px;&quot; color=&quot;#000000&quot;&gt;Put the tasks on the shelves and clearly build an algorithm to solve your particular problem.&lt;/font&gt;&lt;/div&gt;&lt;div style=&quot;&quot;&gt;&lt;font style=&quot;font-size: 13px;&quot; color=&quot;#000000&quot;&gt;In order to use this application, you just need to register .&lt;/font&gt;&lt;/div&gt;&lt;/blockquote&gt;" style="text;spacingTop=-5;whiteSpace=wrap;html=1;align=left;fontSize=12;fontFamily=Helvetica;fillColor=none;strokeColor=none;fontColor=#008CFF;" parent="AbebpnNf3NId4tLL-i8--9" vertex="1">
          <mxGeometry x="40" y="280" width="680" height="60" as="geometry" />
        </mxCell>
        <object label="&lt;font color=&quot;#008cff&quot;&gt;Login&lt;/font&gt;" link="data:page/id,FLh6viGXcvYgxyv5NBFk" id="DoL8kSinB8Yqh4R3mSFy-1">
          <mxCell style="strokeWidth=1;shadow=0;dashed=0;align=center;html=1;shape=mxgraph.mockup.buttons.button;strokeColor=#666666;fontColor=#ffffff;mainText=;buttonStyle=round;fontSize=17;fontStyle=1;fillColor=#FFFFFF;whiteSpace=wrap;points=[];gradientColor=none;sketch=0;labelBackgroundColor=none;labelBorderColor=none;" vertex="1" parent="AbebpnNf3NId4tLL-i8--9">
            <mxGeometry x="530" y="120" width="90" height="30" as="geometry" />
          </mxCell>
        </object>
      </root>
    </mxGraphModel>
  </diagram>
  <diagram id="nGllJwXl_aKc9Nv57PwL" name="Mockup_Registration_Page">
    <mxGraphModel dx="1422" dy="772" grid="1" gridSize="10" guides="1" tooltips="1" connect="1" arrows="1" fold="1" page="1" pageScale="1" pageWidth="827" pageHeight="1169" math="0" shadow="0">
      <root>
        <mxCell id="0" />
        <mxCell id="1" parent="0" />
        <mxCell id="M-5cINfbnXqTzulPna19-4" value="" style="group" vertex="1" connectable="0" parent="1">
          <mxGeometry x="40" y="40" width="760" height="820" as="geometry" />
        </mxCell>
        <UserObject label="" id="gFQ25FQ_q3_TzQZXhbHE-1">
          <mxCell style="strokeWidth=1;shadow=0;dashed=0;align=center;html=1;shape=mxgraph.mockup.containers.browserWindow;rSize=0;strokeColor=#666666;strokeColor2=#008cff;strokeColor3=#c4c4c4;mainText=,;recursiveResize=0;container=0;" vertex="1" parent="M-5cINfbnXqTzulPna19-4">
            <mxGeometry width="760" height="560" as="geometry" />
          </mxCell>
        </UserObject>
        <mxCell id="gFQ25FQ_q3_TzQZXhbHE-2" value="ScrumBoard" style="strokeWidth=1;shadow=0;dashed=0;align=center;html=1;shape=mxgraph.mockup.containers.anchor;fontSize=17;fontColor=#666666;align=left;" vertex="1" parent="M-5cINfbnXqTzulPna19-4">
          <mxGeometry x="60" y="12" width="110" height="26" as="geometry" />
        </mxCell>
        <mxCell id="gFQ25FQ_q3_TzQZXhbHE-3" value="https://{home}/registration" style="strokeWidth=1;shadow=0;dashed=0;align=center;html=1;shape=mxgraph.mockup.containers.anchor;rSize=0;fontSize=17;fontColor=#666666;align=left;" vertex="1" parent="M-5cINfbnXqTzulPna19-4">
          <mxGeometry x="130" y="60" width="250" height="26" as="geometry" />
        </mxCell>
        <mxCell id="gFQ25FQ_q3_TzQZXhbHE-9" value="" style="verticalLabelPosition=bottom;shadow=0;dashed=0;align=center;html=1;verticalAlign=top;strokeWidth=1;shape=mxgraph.mockup.markup.line;strokeColor=#999999;fontSize=16;" vertex="1" parent="M-5cINfbnXqTzulPna19-4">
          <mxGeometry y="150" width="760" height="20" as="geometry" />
        </mxCell>
        <UserObject label="" link="data:page/id,Z34OHi6Wktxm36wKiyyq" id="gFQ25FQ_q3_TzQZXhbHE-10">
          <mxCell style="group" vertex="1" connectable="0" parent="M-5cINfbnXqTzulPna19-4">
            <mxGeometry x="40" y="116" width="120" height="38" as="geometry" />
          </mxCell>
        </UserObject>
        <mxCell id="gFQ25FQ_q3_TzQZXhbHE-11" value="Logo" style="strokeWidth=1;shadow=0;dashed=0;align=center;html=1;shape=mxgraph.mockup.buttons.button;mainText=;buttonStyle=round;fontSize=17;fontStyle=1;whiteSpace=wrap;strokeColor=#FFFFFF;fontColor=#008CFF;" vertex="1" parent="gFQ25FQ_q3_TzQZXhbHE-10">
          <mxGeometry x="30" y="8" width="90" height="30" as="geometry" />
        </mxCell>
        <mxCell id="gFQ25FQ_q3_TzQZXhbHE-12" value="" style="sketch=0;shadow=0;dashed=0;html=1;strokeColor=none;labelPosition=center;verticalLabelPosition=bottom;verticalAlign=top;align=center;shape=mxgraph.mscae.cloud.hockeyapp;fillColor=#0079D6;pointerEvents=1;fontSize=16;fontColor=#008CFF;" vertex="1" parent="gFQ25FQ_q3_TzQZXhbHE-10">
          <mxGeometry width="50" height="38" as="geometry" />
        </mxCell>
        <mxCell id="yGXnHyvSjQFeHtqOazZa-1" value="" style="whiteSpace=wrap;html=1;fontSize=17;fillColor=#FFFFFF;strokeColor=#666666;fontColor=#ffffff;strokeWidth=1;shadow=0;dashed=0;fontStyle=1;" parent="M-5cINfbnXqTzulPna19-4" vertex="1">
          <mxGeometry x="120" y="600" width="320" height="220" as="geometry" />
        </mxCell>
        <UserObject label="Done!&lt;br&gt;Now you can login" link="data:page/id,MvRwfks0NjHCfIFIzfYj" id="yGXnHyvSjQFeHtqOazZa-3">
          <mxCell style="strokeWidth=1;shadow=0;dashed=0;align=center;html=1;shape=mxgraph.mockup.containers.rrect;rSize=0;strokeColor=#666666;fontColor=#666666;fontSize=17;verticalAlign=top;whiteSpace=wrap;fillColor=#ffffff;spacingTop=32;labelBackgroundColor=default;labelBorderColor=none;fontFamily=Helvetica;" parent="M-5cINfbnXqTzulPna19-4" vertex="1">
            <mxGeometry x="155" y="640" width="250" height="140" as="geometry" />
          </mxCell>
        </UserObject>
        <mxCell id="yGXnHyvSjQFeHtqOazZa-4" value="Thank you for registration" style="strokeWidth=1;shadow=0;dashed=0;align=center;html=1;shape=mxgraph.mockup.containers.rrect;rSize=0;fontSize=17;fontColor=#666666;strokeColor=#666666;align=left;spacingLeft=8;fillColor=none;resizeWidth=1;labelBackgroundColor=default;labelBorderColor=none;fontFamily=Helvetica;" parent="yGXnHyvSjQFeHtqOazZa-3" vertex="1">
          <mxGeometry width="250" height="30" relative="1" as="geometry" />
        </mxCell>
        <object label="&lt;span style=&quot;color: rgb(0, 140, 255);&quot;&gt;Login&lt;/span&gt;" id="M-5cINfbnXqTzulPna19-3">
          <mxCell style="strokeWidth=1;shadow=0;dashed=0;align=center;html=1;shape=mxgraph.mockup.buttons.button;strokeColor=#666666;fontColor=#ffffff;mainText=;buttonStyle=round;fontSize=17;fontStyle=1;fillColor=#FFFFFF;whiteSpace=wrap;points=[];gradientColor=none;sketch=0;labelBackgroundColor=none;labelBorderColor=none;" vertex="1" parent="yGXnHyvSjQFeHtqOazZa-3">
            <mxGeometry x="73.3280086417434" y="105.00260273972594" width="103.35000000000001" height="23.424657534246574" as="geometry" />
          </mxCell>
        </object>
        <mxCell id="OfqV4q59KQA96MzBMObs-1" value="" style="strokeWidth=1;shadow=0;dashed=0;align=center;html=1;shape=mxgraph.mockup.forms.rrect;rSize=0;strokeColor=#999999;fillColor=#ffffff;fontSize=13;fontColor=#000000;" parent="M-5cINfbnXqTzulPna19-4" vertex="1">
          <mxGeometry x="241" y="170" width="265" height="380" as="geometry" />
        </mxCell>
        <mxCell id="OfqV4q59KQA96MzBMObs-2" value="Sign up" style="strokeWidth=1;shadow=0;dashed=0;align=center;html=1;shape=mxgraph.mockup.forms.anchor;fontSize=12;fontColor=#666666;align=left;resizeWidth=1;spacingLeft=0;gradientColor=none;" parent="OfqV4q59KQA96MzBMObs-1" vertex="1">
          <mxGeometry width="132.5" height="20" relative="1" as="geometry">
            <mxPoint x="10" y="10" as="offset" />
          </mxGeometry>
        </mxCell>
        <mxCell id="OfqV4q59KQA96MzBMObs-3" value="" style="shape=line;strokeColor=#ddeeff;strokeWidth=2;html=1;resizeWidth=1;fontSize=13;fontColor=#000000;gradientColor=none;" parent="OfqV4q59KQA96MzBMObs-1" vertex="1">
          <mxGeometry width="238.5" height="10" relative="1" as="geometry">
            <mxPoint x="10" y="30" as="offset" />
          </mxGeometry>
        </mxCell>
        <mxCell id="OfqV4q59KQA96MzBMObs-9" value="" style="strokeWidth=1;shadow=0;dashed=0;align=center;html=1;shape=mxgraph.mockup.forms.anchor;fontSize=12;fontColor=#9999ff;align=left;spacingLeft=0;fontStyle=4;resizeWidth=1;gradientColor=none;" parent="OfqV4q59KQA96MzBMObs-1" vertex="1">
          <mxGeometry y="1" width="198.75" height="20" relative="1" as="geometry">
            <mxPoint x="10" y="-110" as="offset" />
          </mxGeometry>
        </mxCell>
        <mxCell id="OfqV4q59KQA96MzBMObs-10" value="" style="shape=line;strokeColor=#ddeeff;strokeWidth=2;html=1;resizeWidth=1;fontSize=13;fontColor=#000000;gradientColor=none;" parent="OfqV4q59KQA96MzBMObs-1" vertex="1">
          <mxGeometry y="1" width="238.5" height="10" relative="1" as="geometry">
            <mxPoint x="13" y="-70" as="offset" />
          </mxGeometry>
        </mxCell>
        <mxCell id="OfqV4q59KQA96MzBMObs-11" value="&lt;font style=&quot;font-size: 11px;&quot;&gt;Already have an account? Login&lt;/font&gt;" style="strokeWidth=1;shadow=0;dashed=0;align=center;html=1;shape=mxgraph.mockup.forms.anchor;fontSize=12;fontColor=#666666;align=left;spacingLeft=0;resizeWidth=1;gradientColor=none;" parent="OfqV4q59KQA96MzBMObs-1" vertex="1">
          <mxGeometry y="1" width="198.75" height="20" relative="1" as="geometry">
            <mxPoint x="6" y="-60" as="offset" />
          </mxGeometry>
        </mxCell>
        <mxCell id="O4yb6NgDUGIXQjWRxeg0-4" value="" style="group" parent="OfqV4q59KQA96MzBMObs-1" vertex="1" connectable="0">
          <mxGeometry x="13.25" y="46.84931506849314" width="198.75" height="52.70547945205479" as="geometry" />
        </mxCell>
        <mxCell id="OfqV4q59KQA96MzBMObs-4" value="User name:" style="strokeWidth=1;shadow=0;dashed=0;align=center;html=1;shape=mxgraph.mockup.forms.anchor;fontSize=12;fontColor=#666666;align=left;resizeWidth=1;spacingLeft=0;gradientColor=none;" parent="O4yb6NgDUGIXQjWRxeg0-4" vertex="1">
          <mxGeometry width="132.5" height="20" relative="1" as="geometry">
            <mxPoint as="offset" />
          </mxGeometry>
        </mxCell>
        <mxCell id="OfqV4q59KQA96MzBMObs-5" value="johndoe" style="strokeWidth=1;shadow=0;dashed=0;align=center;html=1;shape=mxgraph.mockup.forms.rrect;rSize=0;strokeColor=#999999;fontColor=#666666;align=left;spacingLeft=5;resizeWidth=1;fontSize=13;gradientColor=none;" parent="O4yb6NgDUGIXQjWRxeg0-4" vertex="1">
          <mxGeometry width="198.75" height="25" relative="1" as="geometry">
            <mxPoint y="20" as="offset" />
          </mxGeometry>
        </mxCell>
        <mxCell id="O4yb6NgDUGIXQjWRxeg0-5" value="" style="group" parent="OfqV4q59KQA96MzBMObs-1" vertex="1" connectable="0">
          <mxGeometry x="13.25" y="99.55479452054793" width="198.75" height="52.70547945205479" as="geometry" />
        </mxCell>
        <mxCell id="OfqV4q59KQA96MzBMObs-6" value="email:" style="strokeWidth=1;shadow=0;dashed=0;align=center;html=1;shape=mxgraph.mockup.forms.anchor;fontSize=12;fontColor=#666666;align=left;resizeWidth=1;spacingLeft=0;gradientColor=none;" parent="O4yb6NgDUGIXQjWRxeg0-5" vertex="1">
          <mxGeometry width="132.5" height="20" relative="1" as="geometry">
            <mxPoint as="offset" />
          </mxGeometry>
        </mxCell>
        <mxCell id="OfqV4q59KQA96MzBMObs-7" value="123@gmail.com" style="strokeWidth=1;shadow=0;dashed=0;align=center;html=1;shape=mxgraph.mockup.forms.rrect;rSize=0;strokeColor=#999999;fontColor=#666666;align=left;spacingLeft=5;resizeWidth=1;fontSize=13;gradientColor=none;" parent="O4yb6NgDUGIXQjWRxeg0-5" vertex="1">
          <mxGeometry width="198.75" height="25" relative="1" as="geometry">
            <mxPoint y="20" as="offset" />
          </mxGeometry>
        </mxCell>
        <mxCell id="O4yb6NgDUGIXQjWRxeg0-3" value="" style="group" parent="OfqV4q59KQA96MzBMObs-1" vertex="1" connectable="0">
          <mxGeometry x="13.25" y="152.26417808219176" width="198.75" height="56.21917808219174" as="geometry" />
        </mxCell>
        <mxCell id="O4yb6NgDUGIXQjWRxeg0-1" value="Password:" style="strokeWidth=1;shadow=0;dashed=0;align=center;html=1;shape=mxgraph.mockup.forms.anchor;fontSize=12;fontColor=#666666;align=left;resizeWidth=1;spacingLeft=0;gradientColor=none;" parent="O4yb6NgDUGIXQjWRxeg0-3" vertex="1">
          <mxGeometry width="132.5" height="24.98630136986301" as="geometry" />
        </mxCell>
        <mxCell id="O4yb6NgDUGIXQjWRxeg0-2" value="********" style="strokeWidth=1;shadow=0;dashed=0;align=center;html=1;shape=mxgraph.mockup.forms.rrect;rSize=0;strokeColor=#999999;fontColor=#666666;align=left;spacingLeft=5;resizeWidth=1;fontSize=13;gradientColor=none;" parent="O4yb6NgDUGIXQjWRxeg0-3" vertex="1">
          <mxGeometry y="24.98630136986299" width="198.75" height="31.232876712328768" as="geometry" />
        </mxCell>
        <mxCell id="O4yb6NgDUGIXQjWRxeg0-6" value="" style="group" parent="OfqV4q59KQA96MzBMObs-1" vertex="1" connectable="0">
          <mxGeometry x="13.25" y="208.48335616438354" width="198.75" height="56.21917808219174" as="geometry" />
        </mxCell>
        <mxCell id="O4yb6NgDUGIXQjWRxeg0-7" value="Confirm password:" style="strokeWidth=1;shadow=0;dashed=0;align=center;html=1;shape=mxgraph.mockup.forms.anchor;fontSize=12;fontColor=#666666;align=left;resizeWidth=1;spacingLeft=0;gradientColor=none;" parent="O4yb6NgDUGIXQjWRxeg0-6" vertex="1">
          <mxGeometry width="132.5" height="24.98630136986301" as="geometry" />
        </mxCell>
        <mxCell id="O4yb6NgDUGIXQjWRxeg0-8" value="********" style="strokeWidth=1;shadow=0;dashed=0;align=center;html=1;shape=mxgraph.mockup.forms.rrect;rSize=0;strokeColor=#999999;fontColor=#666666;align=left;spacingLeft=5;resizeWidth=1;fontSize=13;gradientColor=none;" parent="O4yb6NgDUGIXQjWRxeg0-6" vertex="1">
          <mxGeometry y="24.98630136986299" width="198.75" height="31.232876712328768" as="geometry" />
        </mxCell>
        <object label="&lt;span style=&quot;color: rgb(0, 140, 255);&quot;&gt;Login&lt;/span&gt;" link="data:page/id,FLh6viGXcvYgxyv5NBFk" id="M-5cINfbnXqTzulPna19-1">
          <mxCell style="strokeWidth=1;shadow=0;dashed=0;align=center;html=1;shape=mxgraph.mockup.buttons.button;strokeColor=#666666;fontColor=#ffffff;mainText=;buttonStyle=round;fontSize=17;fontStyle=1;fillColor=#FFFFFF;whiteSpace=wrap;points=[];gradientColor=none;sketch=0;labelBackgroundColor=none;labelBorderColor=none;" vertex="1" parent="OfqV4q59KQA96MzBMObs-1">
            <mxGeometry x="80.82800864174338" y="351.002602739726" width="103.35000000000001" height="23.424657534246574" as="geometry" />
          </mxCell>
        </object>
        <object label="Register" id="vnMhxrKE3tUY3nJ1nXoK-1">
          <mxCell style="strokeWidth=1;shadow=0;dashed=0;align=center;html=1;shape=mxgraph.mockup.buttons.button;strokeColor=#666666;fontColor=#ffffff;mainText=;buttonStyle=round;fontSize=17;fontStyle=1;fillColor=#008cff;whiteSpace=wrap;points=[];" parent="OfqV4q59KQA96MzBMObs-1" vertex="1">
            <mxGeometry x="80.82999999999998" y="279.99589041095885" width="103.35000000000001" height="23.424657534246574" as="geometry" />
          </mxCell>
        </object>
        <mxCell id="yGXnHyvSjQFeHtqOazZa-2" value="" style="edgeStyle=orthogonalEdgeStyle;rounded=0;orthogonalLoop=1;jettySize=auto;html=1;fontFamily=Helvetica;fontSize=11;fontColor=default;" parent="M-5cINfbnXqTzulPna19-4" source="vnMhxrKE3tUY3nJ1nXoK-1" target="yGXnHyvSjQFeHtqOazZa-1" edge="1">
          <mxGeometry relative="1" as="geometry">
            <Array as="points">
              <mxPoint x="200" y="460" />
            </Array>
          </mxGeometry>
        </mxCell>
      </root>
    </mxGraphModel>
  </diagram>
  <diagram id="FLh6viGXcvYgxyv5NBFk" name="Mockup_Login_Page">
    <mxGraphModel dx="1422" dy="772" grid="1" gridSize="10" guides="1" tooltips="1" connect="1" arrows="1" fold="1" page="1" pageScale="1" pageWidth="827" pageHeight="1169" math="0" shadow="0">
      <root>
        <mxCell id="0" />
        <mxCell id="1" parent="0" />
        <UserObject label="" id="tyYhP-7NpSqkdDyV50yz-1">
          <mxCell style="strokeWidth=1;shadow=0;dashed=0;align=center;html=1;shape=mxgraph.mockup.containers.browserWindow;rSize=0;strokeColor=#666666;strokeColor2=#008cff;strokeColor3=#c4c4c4;mainText=,;recursiveResize=0;" vertex="1" parent="1">
            <mxGeometry x="40" y="40" width="760" height="560" as="geometry" />
          </mxCell>
        </UserObject>
        <mxCell id="tyYhP-7NpSqkdDyV50yz-2" value="ScrumBoard" style="strokeWidth=1;shadow=0;dashed=0;align=center;html=1;shape=mxgraph.mockup.containers.anchor;fontSize=17;fontColor=#666666;align=left;" vertex="1" parent="tyYhP-7NpSqkdDyV50yz-1">
          <mxGeometry x="60" y="12" width="110" height="26" as="geometry" />
        </mxCell>
        <mxCell id="tyYhP-7NpSqkdDyV50yz-3" value="https://{home}/logining" style="strokeWidth=1;shadow=0;dashed=0;align=center;html=1;shape=mxgraph.mockup.containers.anchor;rSize=0;fontSize=17;fontColor=#666666;align=left;" vertex="1" parent="tyYhP-7NpSqkdDyV50yz-1">
          <mxGeometry x="130" y="60" width="250" height="26" as="geometry" />
        </mxCell>
        <mxCell id="tyYhP-7NpSqkdDyV50yz-4" value="" style="verticalLabelPosition=bottom;shadow=0;dashed=0;align=center;html=1;verticalAlign=top;strokeWidth=1;shape=mxgraph.mockup.markup.line;strokeColor=#999999;fontSize=16;" vertex="1" parent="tyYhP-7NpSqkdDyV50yz-1">
          <mxGeometry y="150" width="760" height="20" as="geometry" />
        </mxCell>
        <UserObject label="" link="data:page/id,Z34OHi6Wktxm36wKiyyq" id="tyYhP-7NpSqkdDyV50yz-5">
          <mxCell style="group" vertex="1" connectable="0" parent="tyYhP-7NpSqkdDyV50yz-1">
            <mxGeometry x="40" y="116" width="120" height="38" as="geometry" />
          </mxCell>
        </UserObject>
        <mxCell id="tyYhP-7NpSqkdDyV50yz-6" value="Logo" style="strokeWidth=1;shadow=0;dashed=0;align=center;html=1;shape=mxgraph.mockup.buttons.button;mainText=;buttonStyle=round;fontSize=17;fontStyle=1;whiteSpace=wrap;strokeColor=#FFFFFF;fontColor=#008CFF;" vertex="1" parent="tyYhP-7NpSqkdDyV50yz-5">
          <mxGeometry x="30" y="8" width="90" height="30" as="geometry" />
        </mxCell>
        <mxCell id="tyYhP-7NpSqkdDyV50yz-7" value="" style="sketch=0;shadow=0;dashed=0;html=1;strokeColor=none;labelPosition=center;verticalLabelPosition=bottom;verticalAlign=top;align=center;shape=mxgraph.mscae.cloud.hockeyapp;fillColor=#0079D6;pointerEvents=1;fontSize=16;fontColor=#008CFF;" vertex="1" parent="tyYhP-7NpSqkdDyV50yz-5">
          <mxGeometry width="50" height="38" as="geometry" />
        </mxCell>
        <mxCell id="tyYhP-7NpSqkdDyV50yz-14" value="" style="strokeWidth=1;shadow=0;dashed=0;align=center;html=1;shape=mxgraph.mockup.forms.rrect;rSize=0;strokeColor=#999999;fillColor=#ffffff;fontSize=13;fontColor=#000000;" vertex="1" parent="tyYhP-7NpSqkdDyV50yz-1">
          <mxGeometry x="240.00000000000003" y="170" width="266.15" height="360" as="geometry" />
        </mxCell>
        <mxCell id="tyYhP-7NpSqkdDyV50yz-15" value="Login" style="strokeWidth=1;shadow=0;dashed=0;align=center;html=1;shape=mxgraph.mockup.forms.anchor;fontSize=12;fontColor=#666666;align=left;resizeWidth=1;spacingLeft=0;gradientColor=none;" vertex="1" parent="tyYhP-7NpSqkdDyV50yz-14">
          <mxGeometry width="133.075" height="20" relative="1" as="geometry">
            <mxPoint x="10" y="10" as="offset" />
          </mxGeometry>
        </mxCell>
        <mxCell id="tyYhP-7NpSqkdDyV50yz-16" value="" style="shape=line;strokeColor=#ddeeff;strokeWidth=2;html=1;resizeWidth=1;fontSize=13;fontColor=#000000;gradientColor=none;" vertex="1" parent="tyYhP-7NpSqkdDyV50yz-14">
          <mxGeometry width="239.535" height="10" relative="1" as="geometry">
            <mxPoint x="10" y="30" as="offset" />
          </mxGeometry>
        </mxCell>
        <mxCell id="tyYhP-7NpSqkdDyV50yz-17" value="" style="strokeWidth=1;shadow=0;dashed=0;align=center;html=1;shape=mxgraph.mockup.forms.anchor;fontSize=12;fontColor=#9999ff;align=left;spacingLeft=0;fontStyle=4;resizeWidth=1;gradientColor=none;" vertex="1" parent="tyYhP-7NpSqkdDyV50yz-14">
          <mxGeometry y="1" width="199.61249999999998" height="20" relative="1" as="geometry">
            <mxPoint x="10" y="-110" as="offset" />
          </mxGeometry>
        </mxCell>
        <mxCell id="tyYhP-7NpSqkdDyV50yz-18" value="" style="shape=line;strokeColor=#ddeeff;strokeWidth=2;html=1;resizeWidth=1;fontSize=13;fontColor=#000000;gradientColor=none;" vertex="1" parent="tyYhP-7NpSqkdDyV50yz-14">
          <mxGeometry y="1" width="239.535" height="10" relative="1" as="geometry">
            <mxPoint x="13" y="-70" as="offset" />
          </mxGeometry>
        </mxCell>
        <mxCell id="tyYhP-7NpSqkdDyV50yz-19" value="&lt;span style=&quot;font-size: 11px;&quot;&gt;Not registered yet?&lt;/span&gt;" style="strokeWidth=1;shadow=0;dashed=0;align=center;html=1;shape=mxgraph.mockup.forms.anchor;fontSize=12;fontColor=#666666;align=left;spacingLeft=0;resizeWidth=1;gradientColor=none;" vertex="1" parent="tyYhP-7NpSqkdDyV50yz-14">
          <mxGeometry y="1" width="199.61249999999998" height="20" relative="1" as="geometry">
            <mxPoint x="13" y="-54" as="offset" />
          </mxGeometry>
        </mxCell>
        <mxCell id="tyYhP-7NpSqkdDyV50yz-20" value="" style="group" vertex="1" connectable="0" parent="tyYhP-7NpSqkdDyV50yz-14">
          <mxGeometry x="13.3075" y="44.99999999999999" width="199.61249999999998" height="50.62499999999999" as="geometry" />
        </mxCell>
        <mxCell id="tyYhP-7NpSqkdDyV50yz-21" value="email:" style="strokeWidth=1;shadow=0;dashed=0;align=center;html=1;shape=mxgraph.mockup.forms.anchor;fontSize=12;fontColor=#666666;align=left;resizeWidth=1;spacingLeft=0;gradientColor=none;" vertex="1" parent="tyYhP-7NpSqkdDyV50yz-20">
          <mxGeometry width="133.075" height="20" relative="1" as="geometry">
            <mxPoint as="offset" />
          </mxGeometry>
        </mxCell>
        <mxCell id="tyYhP-7NpSqkdDyV50yz-22" value="123@gmail.com" style="strokeWidth=1;shadow=0;dashed=0;align=center;html=1;shape=mxgraph.mockup.forms.rrect;rSize=0;strokeColor=#999999;fontColor=#666666;align=left;spacingLeft=5;resizeWidth=1;fontSize=13;gradientColor=none;" vertex="1" parent="tyYhP-7NpSqkdDyV50yz-20">
          <mxGeometry width="199.61249999999998" height="25" relative="1" as="geometry">
            <mxPoint y="20" as="offset" />
          </mxGeometry>
        </mxCell>
        <mxCell id="tyYhP-7NpSqkdDyV50yz-23" value="" style="group" vertex="1" connectable="0" parent="tyYhP-7NpSqkdDyV50yz-14">
          <mxGeometry x="13.3075" y="95.62499999999999" width="199.61249999999998" height="50.62499999999999" as="geometry" />
        </mxCell>
        <mxCell id="tyYhP-7NpSqkdDyV50yz-24" value="Password:" style="strokeWidth=1;shadow=0;dashed=0;align=center;html=1;shape=mxgraph.mockup.forms.anchor;fontSize=12;fontColor=#666666;align=left;resizeWidth=1;spacingLeft=0;gradientColor=none;" vertex="1" parent="tyYhP-7NpSqkdDyV50yz-23">
          <mxGeometry width="133.075" height="20" relative="1" as="geometry">
            <mxPoint as="offset" />
          </mxGeometry>
        </mxCell>
        <mxCell id="tyYhP-7NpSqkdDyV50yz-25" value="********" style="strokeWidth=1;shadow=0;dashed=0;align=center;html=1;shape=mxgraph.mockup.forms.rrect;rSize=0;strokeColor=#999999;fontColor=#666666;align=left;spacingLeft=5;resizeWidth=1;fontSize=13;gradientColor=none;" vertex="1" parent="tyYhP-7NpSqkdDyV50yz-23">
          <mxGeometry width="199.61249999999998" height="25" relative="1" as="geometry">
            <mxPoint y="20" as="offset" />
          </mxGeometry>
        </mxCell>
        <object label="&lt;span style=&quot;color: rgb(0, 140, 255);&quot;&gt;Login&lt;/span&gt;" id="j93SBRLcC5YbdFWqSvgs-2">
          <mxCell style="strokeWidth=1;shadow=0;dashed=0;align=center;html=1;shape=mxgraph.mockup.buttons.button;strokeColor=#666666;fontColor=#ffffff;mainText=;buttonStyle=round;fontSize=17;fontStyle=1;fillColor=#FFFFFF;whiteSpace=wrap;points=[];gradientColor=none;sketch=0;labelBackgroundColor=none;labelBorderColor=none;" vertex="1" parent="tyYhP-7NpSqkdDyV50yz-14">
            <mxGeometry x="76.14999999999998" y="168.29" width="103.35000000000001" height="23.424657534246574" as="geometry" />
          </mxCell>
        </object>
        <object label="Register" id="XQ6hONaFtmTDj6VjEb7K-1">
          <mxCell style="strokeWidth=1;shadow=0;dashed=0;align=center;html=1;shape=mxgraph.mockup.buttons.button;strokeColor=#666666;fontColor=#ffffff;mainText=;buttonStyle=round;fontSize=17;fontStyle=1;fillColor=#008cff;whiteSpace=wrap;points=[];" vertex="1" parent="tyYhP-7NpSqkdDyV50yz-14">
            <mxGeometry x="76.14999999999998" y="329.99589041095885" width="103.35000000000001" height="23.424657534246574" as="geometry" />
          </mxCell>
        </object>
      </root>
    </mxGraphModel>
  </diagram>
  <diagram id="MvRwfks0NjHCfIFIzfYj" name="Mockup_Login{id}">
    <mxGraphModel dx="1422" dy="772" grid="1" gridSize="10" guides="1" tooltips="1" connect="1" arrows="1" fold="1" page="1" pageScale="1" pageWidth="827" pageHeight="1169" math="0" shadow="0">
      <root>
        <mxCell id="0" />
        <mxCell id="1" parent="0" />
        <mxCell id="rtKmbSDsZGmFb5S0IHm1-24" value="" style="group;fontSize=7;" vertex="1" connectable="0" parent="1">
          <mxGeometry x="40" y="40" width="770" height="560" as="geometry" />
        </mxCell>
        <UserObject label="" id="uQjDx9Ud5p6JIgZD1w4U-1">
          <mxCell style="strokeWidth=1;shadow=0;dashed=0;align=center;html=1;shape=mxgraph.mockup.containers.browserWindow;rSize=0;strokeColor=#008CFF;strokeColor2=#008cff;strokeColor3=#c4c4c4;mainText=,;recursiveResize=0;container=0;" parent="rtKmbSDsZGmFb5S0IHm1-24" vertex="1">
            <mxGeometry width="760" height="560" as="geometry" />
          </mxCell>
        </UserObject>
        <mxCell id="uQjDx9Ud5p6JIgZD1w4U-2" value="ScrumBoard" style="strokeWidth=1;shadow=0;dashed=0;align=center;html=1;shape=mxgraph.mockup.containers.anchor;fontSize=17;fontColor=#666666;align=left;" parent="rtKmbSDsZGmFb5S0IHm1-24" vertex="1">
          <mxGeometry x="60.00000000000001" y="13.714285714285714" width="110.00000000000001" height="29.71428571428571" as="geometry" />
        </mxCell>
        <mxCell id="uQjDx9Ud5p6JIgZD1w4U-3" value="https://{home}/login{id}" style="strokeWidth=1;shadow=0;dashed=0;align=center;html=1;shape=mxgraph.mockup.containers.anchor;rSize=0;fontSize=17;fontColor=#666666;align=left;" parent="rtKmbSDsZGmFb5S0IHm1-24" vertex="1">
          <mxGeometry x="130.00000000000003" y="60.00142857142857" width="250.00000000000003" height="29.71428571428571" as="geometry" />
        </mxCell>
        <UserObject label="" link="data:page/id,E3jP-nHTplMNk9dZZtZm" id="56_ckI8YM-VzUKrauc3w-2">
          <mxCell style="sketch=0;aspect=fixed;pointerEvents=1;shadow=0;dashed=0;html=1;strokeColor=none;labelPosition=center;verticalLabelPosition=bottom;verticalAlign=top;align=center;fillColor=#008CFF;shape=mxgraph.mscae.enterprise.settings;labelBackgroundColor=#008CFF;labelBorderColor=#008CFF;fontSize=11;fontColor=#008CFF;" parent="rtKmbSDsZGmFb5S0IHm1-24" vertex="1">
            <mxGeometry x="699.9965744400528" y="125.04999999999998" width="34.953947368421055" height="34.953947368421055" as="geometry" />
          </mxCell>
        </UserObject>
        <mxCell id="XdxlwUHCjIS843PTzS7k-1" value="" style="verticalLabelPosition=bottom;shadow=0;dashed=0;align=center;html=1;verticalAlign=top;strokeWidth=1;shape=mxgraph.mockup.navigation.scrollBar;strokeColor=#999999;barPos=20;fillColor2=#99ddff;strokeColor2=none;direction=north;labelBackgroundColor=#008CFF;labelBorderColor=#008CFF;fontSize=11;fontColor=#008CFF;fillColor=#FFFFFF;gradientColor=none;" parent="rtKmbSDsZGmFb5S0IHm1-24" vertex="1">
          <mxGeometry x="740" y="217.14" width="10" height="342.86" as="geometry" />
        </mxCell>
        <object label="Logout" link="data:page/id,Z34OHi6Wktxm36wKiyyq" id="qx6VVrFn3l9Ebyd9BFVM-1">
          <mxCell style="strokeWidth=1;shadow=0;dashed=0;align=center;html=1;shape=mxgraph.mockup.buttons.button;strokeColor=#666666;fontColor=#ffffff;mainText=;buttonStyle=round;fontSize=17;fontStyle=1;fillColor=#008CFF;whiteSpace=wrap;points=[];" parent="rtKmbSDsZGmFb5S0IHm1-24" vertex="1">
            <mxGeometry x="590" y="124.57285714285715" width="90.00000000000001" height="34.285714285714285" as="geometry" />
          </mxCell>
        </object>
        <UserObject label="" link="data:page/id,Z34OHi6Wktxm36wKiyyq" id="uQjDx9Ud5p6JIgZD1w4U-11">
          <mxCell style="group" parent="rtKmbSDsZGmFb5S0IHm1-24" vertex="1" connectable="0">
            <mxGeometry x="40" y="120.00142857142856" width="120.00000000000001" height="43.43" as="geometry" />
          </mxCell>
        </UserObject>
        <mxCell id="mM-F8DRgqSFL7T0kQmVU-1" value="" style="group" vertex="1" connectable="0" parent="uQjDx9Ud5p6JIgZD1w4U-11">
          <mxGeometry width="120.00000000000001" height="43.43" as="geometry" />
        </mxCell>
        <mxCell id="uQjDx9Ud5p6JIgZD1w4U-12" value="Logo" style="strokeWidth=1;shadow=0;dashed=0;align=center;html=1;shape=mxgraph.mockup.buttons.button;mainText=;buttonStyle=round;fontSize=17;fontStyle=1;whiteSpace=wrap;strokeColor=#FFFFFF;fontColor=#008CFF;" parent="mM-F8DRgqSFL7T0kQmVU-1" vertex="1">
          <mxGeometry x="30.000000000000004" y="9.142857142857142" width="90.00000000000001" height="34.285714285714285" as="geometry" />
        </mxCell>
        <mxCell id="uQjDx9Ud5p6JIgZD1w4U-13" value="" style="sketch=0;shadow=0;dashed=0;html=1;strokeColor=none;labelPosition=center;verticalLabelPosition=bottom;verticalAlign=top;align=center;shape=mxgraph.mscae.cloud.hockeyapp;fillColor=#0079D6;pointerEvents=1;fontSize=16;fontColor=#008CFF;" parent="mM-F8DRgqSFL7T0kQmVU-1" vertex="1">
          <mxGeometry width="50.06587615283268" height="43.43" as="geometry" />
        </mxCell>
        <mxCell id="uQjDx9Ud5p6JIgZD1w4U-9" value="" style="verticalLabelPosition=bottom;shadow=0;dashed=0;align=center;html=1;verticalAlign=top;strokeWidth=1;shape=mxgraph.mockup.markup.line;strokeColor=#999999;fontSize=16;" parent="rtKmbSDsZGmFb5S0IHm1-24" vertex="1">
          <mxGeometry y="160" width="760" height="22.86" as="geometry" />
        </mxCell>
        <mxCell id="XdxlwUHCjIS843PTzS7k-9" value="" style="strokeWidth=1;shadow=0;dashed=0;align=center;html=1;shape=mxgraph.mockup.forms.rrect;rSize=0;labelBackgroundColor=none;labelBorderColor=none;fontSize=11;strokeColor=#008CFF;" parent="rtKmbSDsZGmFb5S0IHm1-24" vertex="1">
          <mxGeometry x="2" y="220" width="738" height="340" as="geometry" />
        </mxCell>
        <UserObject label="&lt;font color=&quot;#cccccc&quot;&gt;&amp;nbsp;+ add new board&lt;/font&gt;" id="PRSwgdRrJhhQ8U4mRBVu-3">
          <mxCell style="strokeWidth=1;shadow=0;dashed=0;align=center;html=1;shape=mxgraph.mockup.forms.rrect;rSize=0;fontSize=17;fontColor=#666666;align=left;spacingLeft=5;fillColor=#FFFFFF;strokeColor=none;resizeWidth=1;labelBackgroundColor=#FFFFFF;labelBorderColor=#FFFFFF;" vertex="1" parent="XdxlwUHCjIS843PTzS7k-9">
            <mxGeometry y="206.64086206896553" width="735.020188425303" height="46.89655172413793" as="geometry" />
          </mxCell>
        </UserObject>
        <mxCell id="XdxlwUHCjIS843PTzS7k-10" value="&lt;p style=&quot;line-height: 1.2;&quot;&gt;All boards&lt;/p&gt;" style="strokeWidth=1;shadow=0;dashed=0;align=center;html=1;shape=mxgraph.mockup.forms.rrect;rSize=0;strokeColor=#999999;fontColor=#008cff;fontSize=17;fillColor=#ffffff;resizeWidth=1;labelBackgroundColor=none;labelBorderColor=none;" parent="XdxlwUHCjIS843PTzS7k-9" vertex="1">
          <mxGeometry width="735.02" height="40" relative="1" as="geometry">
            <mxPoint x="2" as="offset" />
          </mxGeometry>
        </mxCell>
        <mxCell id="XdxlwUHCjIS843PTzS7k-11" value="Board_1" style="strokeWidth=1;shadow=0;dashed=0;align=center;html=1;shape=mxgraph.mockup.forms.anchor;fontSize=17;fontColor=#666666;align=left;spacingLeft=5;resizeWidth=1;labelBackgroundColor=#FFFFFF;labelBorderColor=#FFFFFF;fillColor=#FFFFFF;gradientColor=none;" parent="XdxlwUHCjIS843PTzS7k-9" vertex="1">
          <mxGeometry width="735.020188425303" height="40" relative="1" as="geometry">
            <mxPoint y="40" as="offset" />
          </mxGeometry>
        </mxCell>
        <mxCell id="XdxlwUHCjIS843PTzS7k-12" value="Board_2" style="strokeWidth=1;shadow=0;dashed=0;align=center;html=1;shape=mxgraph.mockup.forms.anchor;fontSize=17;fontColor=#666666;align=left;spacingLeft=5;resizeWidth=1;labelBackgroundColor=#FFFFFF;labelBorderColor=#FFFFFF;fillColor=#FFFFFF;gradientColor=none;" parent="XdxlwUHCjIS843PTzS7k-9" vertex="1">
          <mxGeometry width="735.020188425303" height="40" relative="1" as="geometry">
            <mxPoint y="80" as="offset" />
          </mxGeometry>
        </mxCell>
        <UserObject label="&lt;a href=&quot;data:page/id,ibFX3gyZBmREMb7wwEhs&quot;&gt;Board_3&lt;/a&gt;" link="data:page/id,ibFX3gyZBmREMb7wwEhs" id="XdxlwUHCjIS843PTzS7k-13">
          <mxCell style="strokeWidth=1;shadow=0;dashed=0;align=center;html=1;shape=mxgraph.mockup.forms.rrect;rSize=0;fontSize=17;fontColor=#666666;align=left;spacingLeft=5;fillColor=#ddeeff;strokeColor=none;resizeWidth=1;labelBackgroundColor=#FFFFFF;labelBorderColor=#FFFFFF;" parent="XdxlwUHCjIS843PTzS7k-9" vertex="1">
            <mxGeometry width="735.020188425303" height="40" relative="1" as="geometry">
              <mxPoint x="2" y="119" as="offset" />
            </mxGeometry>
          </mxCell>
        </UserObject>
        <mxCell id="XdxlwUHCjIS843PTzS7k-14" value="Board_4" style="strokeWidth=1;shadow=0;dashed=0;align=center;html=1;shape=mxgraph.mockup.forms.anchor;fontSize=17;fontColor=#666666;align=left;spacingLeft=5;resizeWidth=1;labelBackgroundColor=#FFFFFF;labelBorderColor=#FFFFFF;fillColor=#FFFFFF;gradientColor=none;" parent="XdxlwUHCjIS843PTzS7k-9" vertex="1">
          <mxGeometry width="735.020188425303" height="40" relative="1" as="geometry">
            <mxPoint x="-1" y="160" as="offset" />
          </mxGeometry>
        </mxCell>
        <UserObject label="" link="data:page/id,ibFX3gyZBmREMb7wwEhs" id="rtKmbSDsZGmFb5S0IHm1-23">
          <mxCell style="shape=image;html=1;verticalAlign=top;verticalLabelPosition=bottom;labelBackgroundColor=#ffffff;imageAspect=0;aspect=fixed;image=https://cdn4.iconfinder.com/data/icons/universal-7/614/11_-_Valid-128.png;shadow=0;dashed=1;labelBorderColor=default;sketch=0;fontColor=default;strokeColor=#008CFF;fillColor=#008CFF;gradientColor=none;rotation=-15;" vertex="1" parent="XdxlwUHCjIS843PTzS7k-9">
            <mxGeometry x="581.06" y="105.87936767193605" width="62.74457142857143" height="62.74457142857143" as="geometry" />
          </mxCell>
        </UserObject>
        <mxCell id="PRSwgdRrJhhQ8U4mRBVu-15" value="" style="html=1;verticalLabelPosition=bottom;align=center;labelBackgroundColor=#ffffff;verticalAlign=top;strokeWidth=2;strokeColor=#008CFF;shadow=0;dashed=0;shape=mxgraph.ios7.icons.delete;labelBorderColor=none;sketch=0;fontColor=#CCCCCC;fillColor=#FFFFFF;gradientColor=none;" vertex="1" parent="XdxlwUHCjIS843PTzS7k-9">
          <mxGeometry x="695.29" y="118.99900834159715" width="29.8" height="37.8119349005425" as="geometry" />
        </mxCell>
        <mxCell id="PRSwgdRrJhhQ8U4mRBVu-4" value="" style="html=1;verticalLabelPosition=bottom;align=center;labelBackgroundColor=#ffffff;verticalAlign=top;strokeWidth=2;strokeColor=#008CFF;shadow=0;dashed=0;shape=mxgraph.ios7.icons.pen;labelBorderColor=none;sketch=0;fontColor=#CCCCCC;fillColor=#FFFFFF;gradientColor=none;" vertex="1" parent="rtKmbSDsZGmFb5S0IHm1-24">
          <mxGeometry x="650" y="337.14" width="30" height="38.13" as="geometry" />
        </mxCell>
        <mxCell id="XdxlwUHCjIS843PTzS7k-2" value="&lt;span style=&quot;&quot;&gt;Search board&lt;/span&gt;" style="strokeWidth=1;shadow=0;dashed=0;align=center;html=1;shape=mxgraph.mockup.forms.searchBox;strokeColor=#999999;mainText=;strokeColor2=#008cff;fontColor=#666666;fontSize=17;align=left;spacingLeft=3;labelBackgroundColor=#FFFFFF;labelBorderColor=#FFFFFF;fillColor=#FFFFFF;gradientColor=none;" parent="rtKmbSDsZGmFb5S0IHm1-24" vertex="1">
          <mxGeometry x="2" y="170" width="388" height="50" as="geometry" />
        </mxCell>
        <mxCell id="rtKmbSDsZGmFb5S0IHm1-26" value="" style="group" vertex="1" connectable="0" parent="1">
          <mxGeometry x="41" y="660" width="320" height="240" as="geometry" />
        </mxCell>
        <mxCell id="QTTi0_RnKU5EHRVj_z05-1" value="" style="whiteSpace=wrap;html=1;fontSize=11;fillColor=#ffffff;strokeColor=#999999;fontColor=#008CFF;strokeWidth=1;shadow=0;dashed=0;labelBackgroundColor=#FFFFFF;labelBorderColor=#FFFFFF;" parent="rtKmbSDsZGmFb5S0IHm1-26" vertex="1">
          <mxGeometry width="320.00000000000006" height="240" as="geometry" />
        </mxCell>
        <mxCell id="QTTi0_RnKU5EHRVj_z05-5" value="Write name new board" style="strokeWidth=1;shadow=0;dashed=0;align=center;html=1;shape=mxgraph.mockup.containers.rrect;rSize=0;strokeColor=#666666;fontColor=#666666;fontSize=17;verticalAlign=top;whiteSpace=wrap;fillColor=#ffffff;spacingTop=32;labelBackgroundColor=default;labelBorderColor=none;fontFamily=Helvetica;" parent="rtKmbSDsZGmFb5S0IHm1-26" vertex="1">
          <mxGeometry x="8.968888888888888" y="22.5" width="302.0622222222222" height="200.35714285714283" as="geometry" />
        </mxCell>
        <mxCell id="QTTi0_RnKU5EHRVj_z05-6" value="&lt;div style=&quot;text-align: center;&quot;&gt;&lt;span style=&quot;background-color: initial;&quot;&gt;Add&lt;/span&gt;&lt;/div&gt;" style="strokeWidth=1;shadow=0;dashed=0;align=center;html=1;shape=mxgraph.mockup.containers.rrect;rSize=0;fontSize=17;fontColor=#666666;strokeColor=#666666;align=left;spacingLeft=8;fillColor=#ffffff;resizeWidth=1;labelBackgroundColor=none;labelBorderColor=none;fontFamily=Helvetica;" parent="QTTi0_RnKU5EHRVj_z05-5" vertex="1">
          <mxGeometry width="302.0622222222222" height="30" relative="1" as="geometry" />
        </mxCell>
        <mxCell id="QTTi0_RnKU5EHRVj_z05-7" value="" style="shape=ellipse;strokeColor=#008cff;resizable=0;fillColor=none;html=1;shadow=0;dashed=0;labelBackgroundColor=#008CFF;labelBorderColor=#008CFF;fontFamily=Helvetica;fontSize=11;fontColor=#008CFF;" parent="QTTi0_RnKU5EHRVj_z05-6" vertex="1">
          <mxGeometry x="1" y="0.5" width="20" height="20" relative="1" as="geometry">
            <mxPoint x="-25" y="-10" as="offset" />
          </mxGeometry>
        </mxCell>
        <mxCell id="-3jSgI8P1H0vJkyKOa6u-4" value="" style="shape=mxgraph.mockup.markup.redX;fillColor=#ff0000;html=1;shadow=0;strokeColor=none;dashed=0;labelBackgroundColor=none;labelBorderColor=none;fontFamily=Helvetica;fontSize=11;fontColor=#008CFF;" parent="QTTi0_RnKU5EHRVj_z05-6" vertex="1">
          <mxGeometry x="283.18333333333334" y="10" width="9.439444444444444" height="10" as="geometry" />
        </mxCell>
        <object label="ok" id="-3jSgI8P1H0vJkyKOa6u-3">
          <mxCell style="strokeWidth=1;shadow=0;dashed=0;align=center;html=1;shape=mxgraph.mockup.buttons.button;strokeColor=#666666;fontColor=#ffffff;mainText=;buttonStyle=round;fontSize=17;fontStyle=1;fillColor=#008cff;whiteSpace=wrap;points=[];" parent="QTTi0_RnKU5EHRVj_z05-5" vertex="1">
            <mxGeometry x="113.27333333333333" y="154.12087912087907" width="62.22222222222222" height="23.14285714285714" as="geometry" />
          </mxCell>
        </object>
        <mxCell id="-3jSgI8P1H0vJkyKOa6u-2" value="newBoard" style="strokeWidth=1;shadow=0;dashed=0;align=center;html=1;shape=mxgraph.mockup.forms.rrect;fillColor=#ffffff;rSize=0;fontColor=#666666;align=left;spacingLeft=3;strokeColor=#999999;labelBackgroundColor=#FFFFFF;labelBorderColor=#FFFFFF;fontSize=11;" parent="QTTi0_RnKU5EHRVj_z05-5" vertex="1">
          <mxGeometry x="18.878888888888888" y="102.74725274725272" width="273.7438888888889" height="28.132197802197798" as="geometry" />
        </mxCell>
        <mxCell id="-3jSgI8P1H0vJkyKOa6u-1" value="" style="strokeWidth=1;shadow=0;dashed=0;align=center;html=1;shape=mxgraph.mockup.forms.anchor;align=right;spacingRight=2;fontColor=#666666;labelBackgroundColor=#FFFFFF;labelBorderColor=#FFFFFF;fontSize=11;fillColor=#FFFFFF;gradientColor=none;" parent="QTTi0_RnKU5EHRVj_z05-5" vertex="1">
          <mxGeometry x="18.878888888888888" y="62.17980295566501" width="47.19722222222222" height="12.435960591133004" as="geometry" />
        </mxCell>
        <mxCell id="rtKmbSDsZGmFb5S0IHm1-27" value="" style="group" vertex="1" connectable="0" parent="1">
          <mxGeometry x="440" y="760" width="320" height="240" as="geometry" />
        </mxCell>
        <mxCell id="QTTi0_RnKU5EHRVj_z05-9" value="" style="whiteSpace=wrap;html=1;fontSize=11;fillColor=#ffffff;strokeColor=#999999;fontColor=#008CFF;strokeWidth=1;shadow=0;dashed=0;labelBackgroundColor=#FFFFFF;labelBorderColor=#FFFFFF;" parent="rtKmbSDsZGmFb5S0IHm1-27" vertex="1">
          <mxGeometry width="319.99999999999994" height="240" as="geometry" />
        </mxCell>
        <mxCell id="-3jSgI8P1H0vJkyKOa6u-12" value="Are you sure you want to delete the board?? &lt;br&gt;&amp;nbsp;" style="strokeWidth=1;shadow=0;dashed=0;align=center;html=1;shape=mxgraph.mockup.containers.rrect;rSize=0;strokeColor=#666666;fontColor=#666666;fontSize=17;verticalAlign=top;whiteSpace=wrap;fillColor=#ffffff;spacingTop=32;labelBackgroundColor=default;labelBorderColor=none;fontFamily=Helvetica;" parent="rtKmbSDsZGmFb5S0IHm1-27" vertex="1">
          <mxGeometry x="9.408" y="34.285714285714285" width="301.1748571428571" height="188.57142857142856" as="geometry" />
        </mxCell>
        <mxCell id="-3jSgI8P1H0vJkyKOa6u-13" value="&lt;div style=&quot;text-align: center;&quot;&gt;&lt;span style=&quot;background-color: initial;&quot;&gt;Delete&lt;/span&gt;&lt;/div&gt;" style="strokeWidth=1;shadow=0;dashed=0;align=center;html=1;shape=mxgraph.mockup.containers.rrect;rSize=0;fontSize=17;fontColor=#666666;strokeColor=#666666;align=left;spacingLeft=8;fillColor=#ffffff;resizeWidth=1;labelBackgroundColor=none;labelBorderColor=none;fontFamily=Helvetica;" parent="-3jSgI8P1H0vJkyKOa6u-12" vertex="1">
          <mxGeometry width="301.1748571428571" height="30" relative="1" as="geometry" />
        </mxCell>
        <mxCell id="-3jSgI8P1H0vJkyKOa6u-14" value="" style="shape=ellipse;strokeColor=#008cff;resizable=0;fillColor=none;html=1;shadow=0;dashed=0;labelBackgroundColor=#008CFF;labelBorderColor=#008CFF;fontFamily=Helvetica;fontSize=11;fontColor=#008CFF;" parent="-3jSgI8P1H0vJkyKOa6u-13" vertex="1">
          <mxGeometry x="1" y="0.5" width="20" height="20" relative="1" as="geometry">
            <mxPoint x="-25" y="-10" as="offset" />
          </mxGeometry>
        </mxCell>
        <mxCell id="-3jSgI8P1H0vJkyKOa6u-15" value="" style="shape=mxgraph.mockup.markup.redX;fillColor=#ff0000;html=1;shadow=0;strokeColor=none;dashed=0;labelBackgroundColor=none;labelBorderColor=none;fontFamily=Helvetica;fontSize=11;fontColor=#008CFF;" parent="-3jSgI8P1H0vJkyKOa6u-13" vertex="1">
          <mxGeometry x="282.3514285714285" y="10" width="9.411714285714284" height="10" as="geometry" />
        </mxCell>
        <object label="ok" id="-3jSgI8P1H0vJkyKOa6u-16">
          <mxCell style="strokeWidth=1;shadow=0;dashed=0;align=center;html=1;shape=mxgraph.mockup.buttons.button;strokeColor=#666666;fontColor=#ffffff;mainText=;buttonStyle=round;fontSize=17;fontStyle=1;fillColor=#008cff;whiteSpace=wrap;points=[];" parent="-3jSgI8P1H0vJkyKOa6u-12" vertex="1">
            <mxGeometry x="112.9405714285714" y="145.05494505494508" width="63.99999999999999" height="23.142857142857142" as="geometry" />
          </mxCell>
        </object>
        <mxCell id="-3jSgI8P1H0vJkyKOa6u-18" value="" style="strokeWidth=1;shadow=0;dashed=0;align=center;html=1;shape=mxgraph.mockup.forms.anchor;align=right;spacingRight=2;fontColor=#666666;labelBackgroundColor=#FFFFFF;labelBorderColor=#FFFFFF;fontSize=11;fillColor=#FFFFFF;gradientColor=none;" parent="-3jSgI8P1H0vJkyKOa6u-12" vertex="1">
          <mxGeometry x="18.82342857142857" y="58.52216748768473" width="47.058571428571426" height="11.704433497536947" as="geometry" />
        </mxCell>
        <mxCell id="rtKmbSDsZGmFb5S0IHm1-28" value="" style="group" vertex="1" connectable="0" parent="1">
          <mxGeometry x="40" y="920" width="320" height="240" as="geometry" />
        </mxCell>
        <mxCell id="QTTi0_RnKU5EHRVj_z05-3" value="" style="whiteSpace=wrap;html=1;fontSize=11;fillColor=#ffffff;strokeColor=#999999;fontColor=#008CFF;strokeWidth=1;shadow=0;dashed=0;labelBackgroundColor=#FFFFFF;labelBorderColor=#FFFFFF;" parent="rtKmbSDsZGmFb5S0IHm1-28" vertex="1">
          <mxGeometry width="320" height="240" as="geometry" />
        </mxCell>
        <mxCell id="-3jSgI8P1H0vJkyKOa6u-5" value="Write new board name" style="strokeWidth=1;shadow=0;dashed=0;align=center;html=1;shape=mxgraph.mockup.containers.rrect;rSize=0;strokeColor=#666666;fontColor=#666666;fontSize=17;verticalAlign=top;whiteSpace=wrap;fillColor=#ffffff;spacingTop=32;labelBackgroundColor=default;labelBorderColor=none;fontFamily=Helvetica;" parent="rtKmbSDsZGmFb5S0IHm1-28" vertex="1">
          <mxGeometry x="9.853372434017594" y="25.71428571428571" width="300.29325513196477" height="197.14285714285714" as="geometry" />
        </mxCell>
        <mxCell id="-3jSgI8P1H0vJkyKOa6u-6" value="Raname" style="strokeWidth=1;shadow=0;dashed=0;align=center;html=1;shape=mxgraph.mockup.containers.rrect;rSize=0;fontSize=17;fontColor=#666666;strokeColor=#666666;align=left;spacingLeft=8;fillColor=#ffffff;resizeWidth=1;labelBackgroundColor=none;labelBorderColor=none;fontFamily=Helvetica;" parent="-3jSgI8P1H0vJkyKOa6u-5" vertex="1">
          <mxGeometry width="300.29325513196477" height="30" relative="1" as="geometry" />
        </mxCell>
        <mxCell id="-3jSgI8P1H0vJkyKOa6u-7" value="" style="shape=ellipse;strokeColor=#008cff;resizable=0;fillColor=none;html=1;shadow=0;dashed=0;labelBackgroundColor=#008CFF;labelBorderColor=#008CFF;fontFamily=Helvetica;fontSize=11;fontColor=#008CFF;" parent="-3jSgI8P1H0vJkyKOa6u-6" vertex="1">
          <mxGeometry x="1" y="0.5" width="20" height="20" relative="1" as="geometry">
            <mxPoint x="-25" y="-10" as="offset" />
          </mxGeometry>
        </mxCell>
        <mxCell id="-3jSgI8P1H0vJkyKOa6u-8" value="" style="shape=mxgraph.mockup.markup.redX;fillColor=#ff0000;html=1;shadow=0;strokeColor=none;dashed=0;labelBackgroundColor=none;labelBorderColor=none;fontFamily=Helvetica;fontSize=11;fontColor=#008CFF;" parent="-3jSgI8P1H0vJkyKOa6u-6" vertex="1">
          <mxGeometry x="281.524926686217" y="10" width="9.384164222873899" height="10" as="geometry" />
        </mxCell>
        <object label="ok" id="-3jSgI8P1H0vJkyKOa6u-9">
          <mxCell style="strokeWidth=1;shadow=0;dashed=0;align=center;html=1;shape=mxgraph.mockup.buttons.button;strokeColor=#666666;fontColor=#ffffff;mainText=;buttonStyle=round;fontSize=17;fontStyle=1;fillColor=#008cff;whiteSpace=wrap;points=[];" parent="-3jSgI8P1H0vJkyKOa6u-5" vertex="1">
            <mxGeometry x="112.6099706744868" y="151.64835164835165" width="62.22222222222222" height="23.142857142857142" as="geometry" />
          </mxCell>
        </object>
        <mxCell id="-3jSgI8P1H0vJkyKOa6u-10" value="BuilderBoard" style="strokeWidth=1;shadow=0;dashed=0;align=center;html=1;shape=mxgraph.mockup.forms.rrect;fillColor=#ffffff;rSize=0;fontColor=#666666;align=left;spacingLeft=3;strokeColor=#999999;labelBackgroundColor=#FFFFFF;labelBorderColor=#FFFFFF;fontSize=11;" parent="-3jSgI8P1H0vJkyKOa6u-5" vertex="1">
          <mxGeometry x="18.768328445747798" y="101.0989010989011" width="272.1407624633431" height="27.680879120879123" as="geometry" />
        </mxCell>
        <mxCell id="-3jSgI8P1H0vJkyKOa6u-11" value="" style="strokeWidth=1;shadow=0;dashed=0;align=center;html=1;shape=mxgraph.mockup.forms.anchor;align=right;spacingRight=2;fontColor=#666666;labelBackgroundColor=#FFFFFF;labelBorderColor=#FFFFFF;fontSize=11;fillColor=#FFFFFF;gradientColor=none;" parent="-3jSgI8P1H0vJkyKOa6u-5" vertex="1">
          <mxGeometry x="18.768328445747798" y="61.18226600985221" width="46.920821114369495" height="12.236453201970443" as="geometry" />
        </mxCell>
        <mxCell id="rtKmbSDsZGmFb5S0IHm1-31" style="edgeStyle=orthogonalEdgeStyle;rounded=0;orthogonalLoop=1;jettySize=auto;html=1;fontColor=default;entryX=1;entryY=0.5;entryDx=0;entryDy=0;" edge="1" parent="1" source="PRSwgdRrJhhQ8U4mRBVu-4" target="QTTi0_RnKU5EHRVj_z05-3">
          <mxGeometry relative="1" as="geometry">
            <mxPoint x="200" y="881" as="targetPoint" />
            <Array as="points">
              <mxPoint x="710" y="640" />
              <mxPoint x="420" y="640" />
              <mxPoint x="420" y="1040" />
            </Array>
          </mxGeometry>
        </mxCell>
        <mxCell id="rtKmbSDsZGmFb5S0IHm1-32" style="edgeStyle=orthogonalEdgeStyle;rounded=0;orthogonalLoop=1;jettySize=auto;html=1;fontColor=default;entryX=0.5;entryY=0;entryDx=0;entryDy=0;" edge="1" parent="1" source="PRSwgdRrJhhQ8U4mRBVu-3" target="QTTi0_RnKU5EHRVj_z05-1">
          <mxGeometry relative="1" as="geometry">
            <Array as="points">
              <mxPoint x="20" y="500" />
              <mxPoint x="20" y="640" />
              <mxPoint x="200" y="640" />
              <mxPoint x="200" y="660" />
            </Array>
          </mxGeometry>
        </mxCell>
        <mxCell id="be_QoOjAIyAEXyxjka1b-2" style="edgeStyle=orthogonalEdgeStyle;rounded=0;orthogonalLoop=1;jettySize=auto;html=1;fontColor=default;entryX=0.518;entryY=-0.007;entryDx=0;entryDy=0;entryPerimeter=0;" edge="1" parent="1" source="PRSwgdRrJhhQ8U4mRBVu-15" target="QTTi0_RnKU5EHRVj_z05-9">
          <mxGeometry relative="1" as="geometry">
            <mxPoint x="600" y="720" as="targetPoint" />
            <Array as="points">
              <mxPoint x="754" y="720" />
              <mxPoint x="601" y="720" />
            </Array>
          </mxGeometry>
        </mxCell>
      </root>
    </mxGraphModel>
  </diagram>
  <diagram id="E3jP-nHTplMNk9dZZtZm" name="Mockup_Settings_Page">
    <mxGraphModel dx="1422" dy="772" grid="1" gridSize="10" guides="1" tooltips="1" connect="1" arrows="1" fold="1" page="1" pageScale="1" pageWidth="827" pageHeight="1169" math="0" shadow="0">
      <root>
        <mxCell id="0" />
        <mxCell id="1" parent="0" />
        <UserObject label="" link="data:page/id,Z34OHi6Wktxm36wKiyyq" id="w2fItMdqeNHyJgVTt3T0-5">
          <mxCell style="group" parent="1" vertex="1" connectable="0">
            <mxGeometry x="40" y="40" width="760" height="480" as="geometry" />
          </mxCell>
        </UserObject>
        <UserObject label="" id="NmH0V1H7KZ7vA4efT5-t-1">
          <mxCell style="strokeWidth=1;shadow=0;dashed=0;align=center;html=1;shape=mxgraph.mockup.containers.browserWindow;rSize=0;strokeColor=#008CFF;strokeColor2=#008cff;strokeColor3=#c4c4c4;mainText=,;recursiveResize=0;container=0;" parent="w2fItMdqeNHyJgVTt3T0-5" vertex="1">
            <mxGeometry y="-10" width="760" height="480" as="geometry" />
          </mxCell>
        </UserObject>
        <mxCell id="NmH0V1H7KZ7vA4efT5-t-2" value="ScrumBoard" style="strokeWidth=1;shadow=0;dashed=0;align=center;html=1;shape=mxgraph.mockup.containers.anchor;fontSize=17;fontColor=#666666;align=left;" parent="w2fItMdqeNHyJgVTt3T0-5" vertex="1">
          <mxGeometry x="60" y="12" width="110" height="26" as="geometry" />
        </mxCell>
        <mxCell id="NmH0V1H7KZ7vA4efT5-t-3" value="https://{home}/login{id}/changeaccountdata" style="strokeWidth=1;shadow=0;dashed=0;align=center;html=1;shape=mxgraph.mockup.containers.anchor;rSize=0;fontSize=17;fontColor=#666666;align=left;" parent="w2fItMdqeNHyJgVTt3T0-5" vertex="1">
          <mxGeometry x="130" y="50" width="250" height="26" as="geometry" />
        </mxCell>
        <mxCell id="NmH0V1H7KZ7vA4efT5-t-4" value="" style="verticalLabelPosition=bottom;shadow=0;dashed=0;align=center;html=1;verticalAlign=top;strokeWidth=1;shape=mxgraph.mockup.markup.line;strokeColor=#999999;fontSize=16;" parent="w2fItMdqeNHyJgVTt3T0-5" vertex="1">
          <mxGeometry y="150" width="760" height="20" as="geometry" />
        </mxCell>
        <UserObject label="" link="data:page/id,MvRwfks0NjHCfIFIzfYj" id="NmH0V1H7KZ7vA4efT5-t-5">
          <mxCell style="group" parent="w2fItMdqeNHyJgVTt3T0-5" vertex="1" connectable="0">
            <mxGeometry x="40" y="116" width="120" height="38" as="geometry" />
          </mxCell>
        </UserObject>
        <mxCell id="NmH0V1H7KZ7vA4efT5-t-6" value="Logo" style="strokeWidth=1;shadow=0;dashed=0;align=center;html=1;shape=mxgraph.mockup.buttons.button;mainText=;buttonStyle=round;fontSize=17;fontStyle=1;whiteSpace=wrap;strokeColor=#FFFFFF;fontColor=#008CFF;" parent="NmH0V1H7KZ7vA4efT5-t-5" vertex="1">
          <mxGeometry x="30" y="8" width="90" height="30" as="geometry" />
        </mxCell>
        <mxCell id="NmH0V1H7KZ7vA4efT5-t-7" value="" style="sketch=0;shadow=0;dashed=0;html=1;strokeColor=none;labelPosition=center;verticalLabelPosition=bottom;verticalAlign=top;align=center;shape=mxgraph.mscae.cloud.hockeyapp;fillColor=#0079D6;pointerEvents=1;fontSize=16;fontColor=#008CFF;" parent="NmH0V1H7KZ7vA4efT5-t-5" vertex="1">
          <mxGeometry width="50" height="38" as="geometry" />
        </mxCell>
        <object label="Logout" link="data:page/id,Z34OHi6Wktxm36wKiyyq" id="u0aHQX3vfqhICIiYk5p2-1">
          <mxCell style="strokeWidth=1;shadow=0;dashed=0;align=center;html=1;shape=mxgraph.mockup.buttons.button;strokeColor=#666666;fontColor=#ffffff;mainText=;buttonStyle=round;fontSize=17;fontStyle=1;fillColor=#008cff;whiteSpace=wrap;points=[];" parent="w2fItMdqeNHyJgVTt3T0-5" vertex="1">
            <mxGeometry x="656" y="120" width="90" height="30" as="geometry" />
          </mxCell>
        </object>
        <mxCell id="SZFvQatd4izMF1gwgQbd-1" value="@mail" style="strokeWidth=1;shadow=0;dashed=0;align=center;html=1;shape=mxgraph.mockup.forms.anchor;align=right;spacingRight=2;fontColor=#666666;labelBackgroundColor=#FFFFFF;labelBorderColor=#FFFFFF;fontSize=11;fillColor=#FFFFFF;gradientColor=none;" parent="w2fItMdqeNHyJgVTt3T0-5" vertex="1">
          <mxGeometry x="150" y="250" width="50" height="18" as="geometry" />
        </mxCell>
        <mxCell id="SZFvQatd4izMF1gwgQbd-2" value="john@jgraph.com" style="strokeWidth=1;shadow=0;dashed=0;align=center;html=1;shape=mxgraph.mockup.forms.rrect;fillColor=#ffffff;rSize=0;fontColor=#666666;align=left;spacingLeft=3;strokeColor=#999999;labelBackgroundColor=#FFFFFF;labelBorderColor=#FFFFFF;fontSize=11;" parent="w2fItMdqeNHyJgVTt3T0-5" vertex="1">
          <mxGeometry x="200" y="250" width="350" height="18" as="geometry" />
        </mxCell>
        <mxCell id="SZFvQatd4izMF1gwgQbd-3" value="Name" style="strokeWidth=1;shadow=0;dashed=0;align=center;html=1;shape=mxgraph.mockup.forms.anchor;align=right;spacingRight=2;fontColor=#666666;labelBackgroundColor=#FFFFFF;labelBorderColor=#FFFFFF;fontSize=11;fillColor=#FFFFFF;gradientColor=none;" parent="w2fItMdqeNHyJgVTt3T0-5" vertex="1">
          <mxGeometry x="150" y="280" width="50" height="18" as="geometry" />
        </mxCell>
        <mxCell id="SZFvQatd4izMF1gwgQbd-4" value="Greeting" style="strokeWidth=1;shadow=0;dashed=0;align=center;html=1;shape=mxgraph.mockup.forms.rrect;fillColor=#ffffff;rSize=0;fontColor=#666666;align=left;spacingLeft=3;strokeColor=#999999;labelBackgroundColor=#FFFFFF;labelBorderColor=#FFFFFF;fontSize=11;" parent="w2fItMdqeNHyJgVTt3T0-5" vertex="1">
          <mxGeometry x="200" y="280" width="350" height="18" as="geometry" />
        </mxCell>
        <mxCell id="SZFvQatd4izMF1gwgQbd-5" value="Password" style="strokeWidth=1;shadow=0;dashed=0;align=center;html=1;shape=mxgraph.mockup.forms.anchor;align=right;spacingRight=2;fontColor=#666666;labelBackgroundColor=#FFFFFF;labelBorderColor=#FFFFFF;fontSize=11;fillColor=#FFFFFF;gradientColor=none;" parent="w2fItMdqeNHyJgVTt3T0-5" vertex="1">
          <mxGeometry x="150" y="341.5" width="50" height="18" as="geometry" />
        </mxCell>
        <object label="change" id="SZFvQatd4izMF1gwgQbd-15">
          <mxCell style="strokeWidth=1;shadow=0;dashed=0;align=center;html=1;shape=mxgraph.mockup.buttons.button;strokeColor=#666666;fontColor=#ffffff;mainText=;buttonStyle=round;fontSize=17;fontStyle=1;fillColor=#008cff;whiteSpace=wrap;points=[];" parent="w2fItMdqeNHyJgVTt3T0-5" vertex="1">
            <mxGeometry x="550" y="250" width="70" height="21" as="geometry" />
          </mxCell>
        </object>
        <object label="change" id="SZFvQatd4izMF1gwgQbd-16">
          <mxCell style="strokeWidth=1;shadow=0;dashed=0;align=center;html=1;shape=mxgraph.mockup.buttons.button;strokeColor=#666666;fontColor=#ffffff;mainText=;buttonStyle=round;fontSize=17;fontStyle=1;fillColor=#008cff;whiteSpace=wrap;points=[];" parent="w2fItMdqeNHyJgVTt3T0-5" vertex="1">
            <mxGeometry x="550" y="277" width="70" height="21" as="geometry" />
          </mxCell>
        </object>
        <object label="change" id="SZFvQatd4izMF1gwgQbd-17">
          <mxCell style="strokeWidth=1;shadow=0;dashed=0;align=center;html=1;shape=mxgraph.mockup.buttons.button;strokeColor=#666666;fontColor=#ffffff;mainText=;buttonStyle=round;fontSize=17;fontStyle=1;fillColor=#008cff;whiteSpace=wrap;points=[];" parent="w2fItMdqeNHyJgVTt3T0-5" vertex="1">
            <mxGeometry x="550" y="308.5" width="70" height="21" as="geometry" />
          </mxCell>
        </object>
        <mxCell id="w2fItMdqeNHyJgVTt3T0-1" value="Birdhay" style="strokeWidth=1;shadow=0;dashed=0;align=center;html=1;shape=mxgraph.mockup.forms.anchor;align=right;spacingRight=2;fontColor=#666666;labelBackgroundColor=#FFFFFF;labelBorderColor=#FFFFFF;fontSize=11;fillColor=#FFFFFF;gradientColor=none;" parent="w2fItMdqeNHyJgVTt3T0-5" vertex="1">
          <mxGeometry x="150" y="310" width="50" height="18" as="geometry" />
        </mxCell>
        <mxCell id="w2fItMdqeNHyJgVTt3T0-2" value="dd/mm/yyyy" style="strokeWidth=1;shadow=0;dashed=0;align=center;html=1;shape=mxgraph.mockup.forms.rrect;fillColor=#ffffff;rSize=0;fontColor=#666666;align=left;spacingLeft=3;strokeColor=#999999;labelBackgroundColor=#FFFFFF;labelBorderColor=#FFFFFF;fontSize=11;" parent="w2fItMdqeNHyJgVTt3T0-5" vertex="1">
          <mxGeometry x="200" y="310" width="350" height="18" as="geometry" />
        </mxCell>
        <object label="change" id="w2fItMdqeNHyJgVTt3T0-3">
          <mxCell style="strokeWidth=1;shadow=0;dashed=0;align=center;html=1;shape=mxgraph.mockup.buttons.button;strokeColor=#666666;fontColor=#ffffff;mainText=;buttonStyle=round;fontSize=17;fontStyle=1;fillColor=#008cff;whiteSpace=wrap;points=[];" parent="w2fItMdqeNHyJgVTt3T0-5" vertex="1">
            <mxGeometry x="210" y="338.5" width="70" height="21" as="geometry" />
          </mxCell>
        </object>
        <object label="Lobby" link="data:page/id,MvRwfks0NjHCfIFIzfYj" id="_6_mAOpRSMA8pMLicAqx-1">
          <mxCell style="strokeWidth=1;shadow=0;dashed=0;align=center;html=1;shape=mxgraph.mockup.buttons.button;strokeColor=#666666;fontColor=#ffffff;mainText=;buttonStyle=round;fontSize=17;fontStyle=1;fillColor=#008cff;whiteSpace=wrap;points=[];" parent="w2fItMdqeNHyJgVTt3T0-5" vertex="1">
            <mxGeometry x="335" y="400" width="90" height="30" as="geometry" />
          </mxCell>
        </object>
        <mxCell id="ZZgaHTooE-YzlO-z9gwG-1" value="" style="whiteSpace=wrap;html=1;fontSize=17;fillColor=default;strokeColor=#666666;fontColor=default;strokeWidth=1;shadow=0;dashed=0;fontStyle=1;labelBackgroundColor=default;" parent="1" vertex="1">
          <mxGeometry x="220" y="560" width="470" height="350" as="geometry" />
        </mxCell>
        <mxCell id="ZZgaHTooE-YzlO-z9gwG-3" value="write your old password" style="strokeWidth=1;shadow=0;dashed=0;align=center;html=1;shape=mxgraph.mockup.containers.rrect;rSize=0;strokeColor=#666666;fontColor=#666666;fontSize=17;verticalAlign=top;whiteSpace=wrap;fillColor=#ffffff;spacingTop=32;labelBackgroundColor=default;labelBorderColor=none;fontFamily=Helvetica;" parent="1" vertex="1">
          <mxGeometry x="240" y="585" width="420" height="296.53" as="geometry" />
        </mxCell>
        <mxCell id="ZZgaHTooE-YzlO-z9gwG-4" value="Change Password" style="strokeWidth=1;shadow=0;dashed=0;align=center;html=1;shape=mxgraph.mockup.containers.rrect;rSize=0;fontSize=17;fontColor=#666666;strokeColor=#666666;align=left;spacingLeft=8;fillColor=none;resizeWidth=1;labelBackgroundColor=default;labelBorderColor=none;fontFamily=Helvetica;" parent="ZZgaHTooE-YzlO-z9gwG-3" vertex="1">
          <mxGeometry width="420" height="30" relative="1" as="geometry" />
        </mxCell>
        <mxCell id="ZZgaHTooE-YzlO-z9gwG-5" value="" style="shape=ellipse;strokeColor=#008cff;resizable=0;fillColor=none;html=1;shadow=0;dashed=0;labelBackgroundColor=default;labelBorderColor=none;fontFamily=Helvetica;fontSize=11;fontColor=default;" parent="ZZgaHTooE-YzlO-z9gwG-4" vertex="1">
          <mxGeometry x="1" y="0.5" width="20" height="20" relative="1" as="geometry">
            <mxPoint x="-25" y="-10" as="offset" />
          </mxGeometry>
        </mxCell>
        <mxCell id="ZZgaHTooE-YzlO-z9gwG-8" value="" style="shape=mxgraph.mockup.markup.redX;fillColor=#ff0000;html=1;shadow=0;strokeColor=none;dashed=0;labelBackgroundColor=default;labelBorderColor=none;fontFamily=Helvetica;fontSize=11;fontColor=default;" parent="ZZgaHTooE-YzlO-z9gwG-4" vertex="1">
          <mxGeometry x="395.2941176470588" y="10" width="12.352941176470587" height="10" as="geometry" />
        </mxCell>
        <mxCell id="ZZgaHTooE-YzlO-z9gwG-9" value="********" style="strokeWidth=1;shadow=0;dashed=0;align=center;html=1;shape=mxgraph.mockup.forms.pwField;strokeColor=#999999;mainText=;align=left;fontColor=#666666;fontSize=17;spacingLeft=3;labelBackgroundColor=default;labelBorderColor=none;fontFamily=Helvetica;fillColor=default;gradientColor=none;" parent="ZZgaHTooE-YzlO-z9gwG-3" vertex="1">
          <mxGeometry x="10.504323529411769" y="65.00367433365956" width="259.4117647058823" height="37.65530864567611" as="geometry" />
        </mxCell>
        <object label="check" id="ZZgaHTooE-YzlO-z9gwG-32">
          <mxCell style="strokeWidth=1;shadow=0;dashed=0;align=center;html=1;shape=mxgraph.mockup.buttons.button;strokeColor=#666666;fontColor=#ffffff;mainText=;buttonStyle=round;fontSize=17;fontStyle=1;fillColor=#008cff;whiteSpace=wrap;points=[];" parent="ZZgaHTooE-YzlO-z9gwG-3" vertex="1">
            <mxGeometry x="300.17152941176465" y="65.00367433365956" width="98.8235294117647" height="37.65530864567611" as="geometry" />
          </mxCell>
        </object>
        <mxCell id="ZZgaHTooE-YzlO-z9gwG-33" value="********" style="strokeWidth=1;shadow=0;dashed=0;align=center;html=1;shape=mxgraph.mockup.forms.pwField;strokeColor=#999999;mainText=;align=left;fontColor=#666666;fontSize=17;spacingLeft=3;labelBackgroundColor=default;labelBorderColor=none;fontFamily=Helvetica;fillColor=default;gradientColor=none;" parent="ZZgaHTooE-YzlO-z9gwG-3" vertex="1">
          <mxGeometry x="63" y="124.70902155329667" width="331.065" height="37.65183016937862" as="geometry" />
        </mxCell>
        <mxCell id="ZZgaHTooE-YzlO-z9gwG-34" value="********" style="strokeWidth=1;shadow=0;dashed=0;align=center;html=1;shape=mxgraph.mockup.forms.pwField;strokeColor=#999999;mainText=;align=left;fontColor=#666666;fontSize=17;spacingLeft=3;labelBackgroundColor=default;labelBorderColor=none;fontFamily=Helvetica;fillColor=default;gradientColor=none;" parent="ZZgaHTooE-YzlO-z9gwG-3" vertex="1">
          <mxGeometry x="63" y="183.5809630404578" width="331.065" height="37.65019750775267" as="geometry" />
        </mxCell>
        <mxCell id="ZZgaHTooE-YzlO-z9gwG-37" value="Password" style="text;whiteSpace=wrap;html=1;fontSize=11;fontFamily=Helvetica;fontColor=default;" parent="ZZgaHTooE-YzlO-z9gwG-3" vertex="1">
          <mxGeometry x="5.25" y="124.70902155329667" width="52.5" height="36.12263847398013" as="geometry" />
        </mxCell>
        <mxCell id="ZZgaHTooE-YzlO-z9gwG-38" value="Confirm Password" style="text;whiteSpace=wrap;html=1;fontSize=11;fontFamily=Helvetica;fontColor=default;" parent="ZZgaHTooE-YzlO-z9gwG-3" vertex="1">
          <mxGeometry y="183.57688138639296" width="63" height="43.67226991504198" as="geometry" />
        </mxCell>
        <object label="ok" id="ZZgaHTooE-YzlO-z9gwG-39">
          <mxCell style="strokeWidth=1;shadow=0;dashed=0;align=center;html=1;shape=mxgraph.mockup.buttons.button;strokeColor=#666666;fontColor=#ffffff;mainText=;buttonStyle=round;fontSize=17;fontStyle=1;fillColor=#008cff;whiteSpace=wrap;points=[];" parent="ZZgaHTooE-YzlO-z9gwG-3" vertex="1">
            <mxGeometry x="160.5875294117646" y="235.00469135432382" width="98.8235294117647" height="37.65530864567611" as="geometry" />
          </mxCell>
        </object>
        <mxCell id="ZZgaHTooE-YzlO-z9gwG-36" value="" style="edgeStyle=orthogonalEdgeStyle;rounded=0;orthogonalLoop=1;jettySize=auto;html=1;fontFamily=Helvetica;fontSize=11;fontColor=default;entryX=0.25;entryY=0;entryDx=0;entryDy=0;" parent="1" source="w2fItMdqeNHyJgVTt3T0-3" target="ZZgaHTooE-YzlO-z9gwG-1" edge="1">
          <mxGeometry relative="1" as="geometry">
            <mxPoint x="150" y="675" as="targetPoint" />
          </mxGeometry>
        </mxCell>
      </root>
    </mxGraphModel>
  </diagram>
  <diagram id="ibFX3gyZBmREMb7wwEhs" name="Mockup_WorkWithBoard">
    <mxGraphModel dx="1422" dy="772" grid="1" gridSize="10" guides="1" tooltips="1" connect="1" arrows="1" fold="1" page="1" pageScale="1" pageWidth="827" pageHeight="1169" math="0" shadow="0">
      <root>
        <mxCell id="0" />
        <mxCell id="1" parent="0" />
        <mxCell id="sI7yP0Lg_qp_M2GSkPxv-3" value="" style="fontSize=11;verticalAlign=top;fillColor=#FFFFFF;strokeColor=none;fontColor=default;sketch=0;shadow=0;dashed=0;labelBackgroundColor=#FFFFFF;labelBorderColor=none;html=1;whiteSpace=wrap;" parent="1" vertex="1">
          <mxGeometry x="40" y="560" width="320" height="230" as="geometry" />
        </mxCell>
        <UserObject label="" id="RG0f5KCI1rm1YxQd4je9-1">
          <mxCell style="strokeWidth=1;shadow=0;dashed=0;align=center;html=1;shape=mxgraph.mockup.containers.browserWindow;rSize=0;strokeColor=#008CFF;strokeColor2=#008cff;strokeColor3=#c4c4c4;mainText=,;recursiveResize=0;container=0;" parent="1" vertex="1">
            <mxGeometry x="40" y="40" width="760" height="480" as="geometry" />
          </mxCell>
        </UserObject>
        <mxCell id="RG0f5KCI1rm1YxQd4je9-2" value="ScrumBoard" style="strokeWidth=1;shadow=0;dashed=0;align=center;html=1;shape=mxgraph.mockup.containers.anchor;fontSize=17;fontColor=#666666;align=left;" parent="1" vertex="1">
          <mxGeometry x="100" y="52" width="110" height="26" as="geometry" />
        </mxCell>
        <mxCell id="RG0f5KCI1rm1YxQd4je9-3" value="https://{home}/login{id}/board{name}" style="strokeWidth=1;shadow=0;dashed=0;align=center;html=1;shape=mxgraph.mockup.containers.anchor;rSize=0;fontSize=17;fontColor=#666666;align=left;" parent="1" vertex="1">
          <mxGeometry x="170" y="100" width="250" height="26" as="geometry" />
        </mxCell>
        <mxCell id="RG0f5KCI1rm1YxQd4je9-4" value="" style="verticalLabelPosition=bottom;shadow=0;dashed=0;align=center;html=1;verticalAlign=top;strokeWidth=1;shape=mxgraph.mockup.markup.line;strokeColor=#999999;fontSize=16;" parent="1" vertex="1">
          <mxGeometry x="40" y="190" width="760" height="20" as="geometry" />
        </mxCell>
        <UserObject label="" link="data:page/id,MvRwfks0NjHCfIFIzfYj" id="RG0f5KCI1rm1YxQd4je9-5">
          <mxCell style="group" parent="1" vertex="1" connectable="0">
            <mxGeometry x="80" y="156" width="120" height="38" as="geometry" />
          </mxCell>
        </UserObject>
        <mxCell id="RG0f5KCI1rm1YxQd4je9-6" value="Logo" style="strokeWidth=1;shadow=0;dashed=0;align=center;html=1;shape=mxgraph.mockup.buttons.button;mainText=;buttonStyle=round;fontSize=17;fontStyle=1;whiteSpace=wrap;strokeColor=#FFFFFF;fontColor=#008CFF;" parent="RG0f5KCI1rm1YxQd4je9-5" vertex="1">
          <mxGeometry x="30" y="8" width="90" height="30" as="geometry" />
        </mxCell>
        <mxCell id="RG0f5KCI1rm1YxQd4je9-7" value="" style="sketch=0;shadow=0;dashed=0;html=1;strokeColor=none;labelPosition=center;verticalLabelPosition=bottom;verticalAlign=top;align=center;shape=mxgraph.mscae.cloud.hockeyapp;fillColor=#0079D6;pointerEvents=1;fontSize=16;fontColor=#008CFF;" parent="RG0f5KCI1rm1YxQd4je9-5" vertex="1">
          <mxGeometry width="50" height="38" as="geometry" />
        </mxCell>
        <UserObject label="" link="data:page/id,E3jP-nHTplMNk9dZZtZm" id="RG0f5KCI1rm1YxQd4je9-8">
          <mxCell style="sketch=0;aspect=fixed;pointerEvents=1;shadow=0;dashed=0;html=1;strokeColor=none;labelPosition=center;verticalLabelPosition=bottom;verticalAlign=top;align=center;fillColor=#008CFF;shape=mxgraph.mscae.enterprise.settings;labelBackgroundColor=#008CFF;labelBorderColor=#008CFF;fontSize=11;fontColor=#008CFF;" parent="1" vertex="1">
            <mxGeometry x="740" y="159" width="35" height="35" as="geometry" />
          </mxCell>
        </UserObject>
        <object label="Logout" link="data:page/id,Z34OHi6Wktxm36wKiyyq" id="RG0f5KCI1rm1YxQd4je9-20">
          <mxCell style="strokeWidth=1;shadow=0;dashed=0;align=center;html=1;shape=mxgraph.mockup.buttons.button;strokeColor=#666666;fontColor=#ffffff;mainText=;buttonStyle=round;fontSize=17;fontStyle=1;fillColor=#008cff;whiteSpace=wrap;points=[];" parent="1" vertex="1">
            <mxGeometry x="640" y="160" width="90" height="30" as="geometry" />
          </mxCell>
        </object>
        <mxCell id="RG0f5KCI1rm1YxQd4je9-21" value="" style="strokeWidth=1;shadow=0;dashed=0;align=center;html=1;shape=mxgraph.mockup.forms.rrect;rSize=0;strokeColor=#999999;fillColor=#ffffff;labelBackgroundColor=#FFFFFF;labelBorderColor=#FFFFFF;fontSize=11;fontColor=#008CFF;" parent="1" vertex="1">
          <mxGeometry x="60" y="260" width="140" height="240" as="geometry" />
        </mxCell>
        <mxCell id="RG0f5KCI1rm1YxQd4je9-22" value="&lt;font style=&quot;font-size: 20px;&quot;&gt;{id} {name}&lt;/font&gt;" style="strokeWidth=1;shadow=0;dashed=0;align=left;html=1;shape=mxgraph.mockup.forms.rrect;rSize=0;strokeColor=#999999;fontColor=#008cff;fontSize=17;fillColor=#ffffff;resizeWidth=1;labelBackgroundColor=#FFFFFF;labelBorderColor=#FFFFFF;" parent="RG0f5KCI1rm1YxQd4je9-21" vertex="1">
          <mxGeometry width="140" height="40" relative="1" as="geometry" />
        </mxCell>
        <mxCell id="RG0f5KCI1rm1YxQd4je9-23" value="&lt;a href=&quot;data:page/id,69wS8Tps1FHcFWiVdc-3&quot;&gt;{id}{TaskName}&lt;/a&gt;" style="strokeWidth=1;shadow=0;dashed=0;align=center;html=1;shape=mxgraph.mockup.forms.anchor;fontSize=17;fontColor=#666666;align=left;spacingLeft=5;resizeWidth=1;labelBackgroundColor=#FFFFFF;labelBorderColor=#FFFFFF;fillColor=#FFFFFF;gradientColor=none;" parent="RG0f5KCI1rm1YxQd4je9-21" vertex="1">
          <mxGeometry width="140" height="20" relative="1" as="geometry">
            <mxPoint y="50" as="offset" />
          </mxGeometry>
        </mxCell>
        <UserObject label="&lt;a href=&quot;data:page/id,69wS8Tps1FHcFWiVdc-3&quot;&gt;{id}{TaskName}&lt;/a&gt;" link="data:page/id,69wS8Tps1FHcFWiVdc-3" id="RG0f5KCI1rm1YxQd4je9-24">
          <mxCell style="strokeWidth=1;shadow=0;dashed=0;align=center;html=1;shape=mxgraph.mockup.forms.anchor;fontSize=17;fontColor=#666666;align=left;spacingLeft=5;resizeWidth=1;labelBackgroundColor=#FFFFFF;labelBorderColor=#FFFFFF;fillColor=#FFFFFF;gradientColor=none;" parent="RG0f5KCI1rm1YxQd4je9-21" vertex="1">
            <mxGeometry width="140" height="20" relative="1" as="geometry">
              <mxPoint y="70" as="offset" />
            </mxGeometry>
          </mxCell>
        </UserObject>
        <mxCell id="RG0f5KCI1rm1YxQd4je9-25" value="&lt;a href=&quot;data:page/id,69wS8Tps1FHcFWiVdc-3&quot;&gt;{id}{TaskName}&lt;/a&gt;" style="strokeWidth=1;shadow=0;dashed=0;align=center;html=1;shape=mxgraph.mockup.forms.rrect;rSize=0;fontSize=17;fontColor=#666666;align=left;spacingLeft=5;fillColor=#ddeeff;strokeColor=none;resizeWidth=1;labelBackgroundColor=#FFFFFF;labelBorderColor=#FFFFFF;" parent="RG0f5KCI1rm1YxQd4je9-21" vertex="1">
          <mxGeometry width="140" height="20" relative="1" as="geometry">
            <mxPoint y="90" as="offset" />
          </mxGeometry>
        </mxCell>
        <mxCell id="RG0f5KCI1rm1YxQd4je9-26" value="&lt;a href=&quot;data:page/id,69wS8Tps1FHcFWiVdc-3&quot;&gt;{id}{TaskName}&lt;/a&gt;" style="strokeWidth=1;shadow=0;dashed=0;align=center;html=1;shape=mxgraph.mockup.forms.anchor;fontSize=17;fontColor=#666666;align=left;spacingLeft=5;resizeWidth=1;labelBackgroundColor=#FFFFFF;labelBorderColor=#FFFFFF;fillColor=#FFFFFF;gradientColor=none;" parent="RG0f5KCI1rm1YxQd4je9-21" vertex="1">
          <mxGeometry width="140" height="20" relative="1" as="geometry">
            <mxPoint y="110" as="offset" />
          </mxGeometry>
        </mxCell>
        <UserObject label="" id="3uUp0mRVbtGcAX9OaMUt-1">
          <mxCell style="sketch=0;aspect=fixed;pointerEvents=1;shadow=0;dashed=0;html=1;strokeColor=none;labelPosition=center;verticalLabelPosition=bottom;verticalAlign=top;align=center;fillColor=#008CFF;shape=mxgraph.mscae.enterprise.settings;labelBackgroundColor=#008CFF;labelBorderColor=#008CFF;fontSize=11;fontColor=#008CFF;" parent="RG0f5KCI1rm1YxQd4je9-21" vertex="1">
            <mxGeometry x="107.6923076923077" y="10.53" width="23.16" height="23.16" as="geometry" />
          </mxCell>
        </UserObject>
        <object label="+task" id="hnaSzhTGC-2BycCKvce9-1">
          <mxCell style="strokeWidth=1;shadow=0;dashed=0;align=center;html=1;shape=mxgraph.mockup.buttons.button;strokeColor=#666666;fontColor=#ffffff;mainText=;buttonStyle=round;fontSize=17;fontStyle=1;fillColor=#008cff;whiteSpace=wrap;points=[];" parent="RG0f5KCI1rm1YxQd4je9-21" vertex="1">
            <mxGeometry x="15" y="200" width="110" height="30" as="geometry" />
          </mxCell>
        </object>
        <object label="Add Column" id="bmyVvI1b8H6rOgWSmCRH-13">
          <mxCell style="strokeWidth=1;shadow=0;dashed=0;align=center;html=1;shape=mxgraph.mockup.buttons.button;strokeColor=#666666;fontColor=#ffffff;mainText=;buttonStyle=round;fontSize=17;fontStyle=1;fillColor=#008cff;whiteSpace=wrap;points=[];" parent="1" vertex="1">
            <mxGeometry x="70" y="220" width="110" height="30" as="geometry" />
          </mxCell>
        </object>
        <mxCell id="m6kRUyEz8704ZrND9KRD-3" value="Option 1" style="strokeWidth=1;shadow=0;dashed=0;align=center;html=1;shape=mxgraph.mockup.forms.comboBox;strokeColor=#999999;fillColor=#ddeeff;align=left;fillColor2=#aaddff;mainText=;fontColor=#666666;fontSize=17;spacingLeft=3;labelBackgroundColor=#FFFFFF;labelBorderColor=#FFFFFF;fontFamily=Helvetica;" parent="1" vertex="1">
          <mxGeometry x="170" y="585" width="150" height="30" as="geometry" />
        </mxCell>
        <mxCell id="m6kRUyEz8704ZrND9KRD-4" value="Position id" style="strokeWidth=1;shadow=0;dashed=0;align=center;html=1;shape=mxgraph.mockup.forms.anchor;fontSize=17;fontColor=#666666;align=left;spacingLeft=5;resizeWidth=1;labelBackgroundColor=#FFFFFF;labelBorderColor=#FFFFFF;fillColor=#FFFFFF;gradientColor=none;" parent="1" vertex="1">
          <mxGeometry x="50" y="590" width="80" height="20" as="geometry" />
        </mxCell>
        <mxCell id="m6kRUyEz8704ZrND9KRD-6" value="Name" style="strokeWidth=1;shadow=0;dashed=0;align=center;html=1;shape=mxgraph.mockup.forms.anchor;fontSize=17;fontColor=#666666;align=left;spacingLeft=5;resizeWidth=1;labelBackgroundColor=#FFFFFF;labelBorderColor=#FFFFFF;fillColor=#FFFFFF;gradientColor=none;" parent="1" vertex="1">
          <mxGeometry x="50" y="635" width="80" height="20" as="geometry" />
        </mxCell>
        <mxCell id="m6kRUyEz8704ZrND9KRD-7" value="In Progress" style="strokeWidth=1;shadow=0;dashed=0;align=center;html=1;shape=mxgraph.mockup.forms.pwField;strokeColor=#999999;mainText=;align=left;fontColor=#666666;fontSize=17;spacingLeft=3;labelBackgroundColor=#FFFFFF;labelBorderColor=#FFFFFF;fontFamily=Helvetica;fillColor=#FFFFFF;gradientColor=none;" parent="1" vertex="1">
          <mxGeometry x="170" y="630" width="150" height="30" as="geometry" />
        </mxCell>
        <object label="ok" id="m6kRUyEz8704ZrND9KRD-8">
          <mxCell style="strokeWidth=1;shadow=0;dashed=0;align=center;html=1;shape=mxgraph.mockup.buttons.button;strokeColor=#666666;fontColor=#ffffff;mainText=;buttonStyle=round;fontSize=17;fontStyle=1;fillColor=#008cff;whiteSpace=wrap;points=[];" parent="1" vertex="1">
            <mxGeometry x="155" y="730" width="90" height="30" as="geometry" />
          </mxCell>
        </object>
        <mxCell id="sI7yP0Lg_qp_M2GSkPxv-1" value="Delete" style="strokeWidth=1;shadow=0;dashed=0;align=center;html=1;shape=mxgraph.mockup.buttons.onOffButton;gradientColor=none;strokeColor=#999999;buttonState=on;fillColor2=#008cff;fontColor=#FFFFFF;fontSize=17;mainText=;spacingRight=40;fontStyle=1;labelBackgroundColor=none;labelBorderColor=none;fontFamily=Helvetica;fillColor=#FFFFFF;" parent="1" vertex="1">
          <mxGeometry x="220" y="680" width="100" height="30" as="geometry" />
        </mxCell>
        <mxCell id="sI7yP0Lg_qp_M2GSkPxv-4" value="" style="edgeStyle=orthogonalEdgeStyle;rounded=0;orthogonalLoop=1;jettySize=auto;html=1;fontFamily=Helvetica;fontSize=20;fontColor=#FFFFFF;" parent="1" source="3uUp0mRVbtGcAX9OaMUt-1" target="sI7yP0Lg_qp_M2GSkPxv-3" edge="1">
          <mxGeometry relative="1" as="geometry">
            <Array as="points">
              <mxPoint x="220" y="282" />
            </Array>
          </mxGeometry>
        </mxCell>
        <mxCell id="BHxYfz-5SGwqB7bFT08A-1" value="" style="strokeWidth=1;shadow=0;dashed=0;align=center;html=1;shape=mxgraph.mockup.forms.rrect;rSize=0;strokeColor=#999999;fillColor=#ffffff;labelBackgroundColor=#FFFFFF;labelBorderColor=#FFFFFF;fontSize=11;fontColor=#008CFF;" parent="1" vertex="1">
          <mxGeometry x="250" y="260" width="140" height="240" as="geometry" />
        </mxCell>
        <mxCell id="BHxYfz-5SGwqB7bFT08A-2" value="&lt;font style=&quot;font-size: 20px;&quot;&gt;{id} {name}&lt;/font&gt;" style="strokeWidth=1;shadow=0;dashed=0;align=left;html=1;shape=mxgraph.mockup.forms.rrect;rSize=0;strokeColor=#999999;fontColor=#008cff;fontSize=17;fillColor=#ffffff;resizeWidth=1;labelBackgroundColor=#FFFFFF;labelBorderColor=#FFFFFF;" parent="BHxYfz-5SGwqB7bFT08A-1" vertex="1">
          <mxGeometry width="140" height="40" relative="1" as="geometry" />
        </mxCell>
        <mxCell id="BHxYfz-5SGwqB7bFT08A-3" value="&lt;a href=&quot;null&quot;&gt;{id}{TaskName}&lt;/a&gt;" style="strokeWidth=1;shadow=0;dashed=0;align=center;html=1;shape=mxgraph.mockup.forms.anchor;fontSize=17;fontColor=#666666;align=left;spacingLeft=5;resizeWidth=1;labelBackgroundColor=#FFFFFF;labelBorderColor=#FFFFFF;fillColor=#FFFFFF;gradientColor=none;" parent="BHxYfz-5SGwqB7bFT08A-1" vertex="1">
          <mxGeometry width="140" height="20" relative="1" as="geometry">
            <mxPoint y="50" as="offset" />
          </mxGeometry>
        </mxCell>
        <UserObject label="&lt;a href=&quot;null&quot;&gt;{id}{TaskName}&lt;/a&gt;" id="BHxYfz-5SGwqB7bFT08A-4">
          <mxCell style="strokeWidth=1;shadow=0;dashed=0;align=center;html=1;shape=mxgraph.mockup.forms.anchor;fontSize=17;fontColor=#666666;align=left;spacingLeft=5;resizeWidth=1;labelBackgroundColor=#FFFFFF;labelBorderColor=#FFFFFF;fillColor=#FFFFFF;gradientColor=none;" parent="BHxYfz-5SGwqB7bFT08A-1" vertex="1">
            <mxGeometry width="140" height="20" relative="1" as="geometry">
              <mxPoint y="70" as="offset" />
            </mxGeometry>
          </mxCell>
        </UserObject>
        <mxCell id="BHxYfz-5SGwqB7bFT08A-5" value="&lt;a href=&quot;null&quot;&gt;{id}{TaskName}&lt;/a&gt;" style="strokeWidth=1;shadow=0;dashed=0;align=center;html=1;shape=mxgraph.mockup.forms.rrect;rSize=0;fontSize=17;fontColor=#666666;align=left;spacingLeft=5;fillColor=#ddeeff;strokeColor=none;resizeWidth=1;labelBackgroundColor=#FFFFFF;labelBorderColor=#FFFFFF;" parent="BHxYfz-5SGwqB7bFT08A-1" vertex="1">
          <mxGeometry width="140" height="20" relative="1" as="geometry">
            <mxPoint y="90" as="offset" />
          </mxGeometry>
        </mxCell>
        <mxCell id="BHxYfz-5SGwqB7bFT08A-6" value="&lt;a href=&quot;null&quot;&gt;{id}{TaskName}&lt;/a&gt;" style="strokeWidth=1;shadow=0;dashed=0;align=center;html=1;shape=mxgraph.mockup.forms.anchor;fontSize=17;fontColor=#666666;align=left;spacingLeft=5;resizeWidth=1;labelBackgroundColor=#FFFFFF;labelBorderColor=#FFFFFF;fillColor=#FFFFFF;gradientColor=none;" parent="BHxYfz-5SGwqB7bFT08A-1" vertex="1">
          <mxGeometry width="140" height="20" relative="1" as="geometry">
            <mxPoint y="110" as="offset" />
          </mxGeometry>
        </mxCell>
        <UserObject label="" id="BHxYfz-5SGwqB7bFT08A-7">
          <mxCell style="sketch=0;aspect=fixed;pointerEvents=1;shadow=0;dashed=0;html=1;strokeColor=none;labelPosition=center;verticalLabelPosition=bottom;verticalAlign=top;align=center;fillColor=#008CFF;shape=mxgraph.mscae.enterprise.settings;labelBackgroundColor=#008CFF;labelBorderColor=#008CFF;fontSize=11;fontColor=#008CFF;" parent="BHxYfz-5SGwqB7bFT08A-1" vertex="1">
            <mxGeometry x="107.6923076923077" y="10.53" width="23.16" height="23.16" as="geometry" />
          </mxCell>
        </UserObject>
        <object label="+task" id="hnaSzhTGC-2BycCKvce9-2">
          <mxCell style="strokeWidth=1;shadow=0;dashed=0;align=center;html=1;shape=mxgraph.mockup.buttons.button;strokeColor=#666666;fontColor=#ffffff;mainText=;buttonStyle=round;fontSize=17;fontStyle=1;fillColor=#008cff;whiteSpace=wrap;points=[];" parent="BHxYfz-5SGwqB7bFT08A-1" vertex="1">
            <mxGeometry x="15" y="200" width="110" height="30" as="geometry" />
          </mxCell>
        </object>
        <mxCell id="BHxYfz-5SGwqB7bFT08A-8" value="" style="strokeWidth=1;shadow=0;dashed=0;align=center;html=1;shape=mxgraph.mockup.forms.rrect;rSize=0;strokeColor=#999999;fillColor=#ffffff;labelBackgroundColor=#FFFFFF;labelBorderColor=#FFFFFF;fontSize=11;fontColor=#008CFF;" parent="1" vertex="1">
          <mxGeometry x="430" y="260" width="140" height="240" as="geometry" />
        </mxCell>
        <mxCell id="BHxYfz-5SGwqB7bFT08A-9" value="&lt;font style=&quot;font-size: 20px;&quot;&gt;{id} {name}&lt;/font&gt;" style="strokeWidth=1;shadow=0;dashed=0;align=left;html=1;shape=mxgraph.mockup.forms.rrect;rSize=0;strokeColor=#999999;fontColor=#008cff;fontSize=17;fillColor=#ffffff;resizeWidth=1;labelBackgroundColor=#FFFFFF;labelBorderColor=#FFFFFF;" parent="BHxYfz-5SGwqB7bFT08A-8" vertex="1">
          <mxGeometry width="140" height="40" relative="1" as="geometry" />
        </mxCell>
        <mxCell id="BHxYfz-5SGwqB7bFT08A-10" value="&lt;a href=&quot;null&quot;&gt;{id}{TaskName}&lt;/a&gt;" style="strokeWidth=1;shadow=0;dashed=0;align=center;html=1;shape=mxgraph.mockup.forms.anchor;fontSize=17;fontColor=#666666;align=left;spacingLeft=5;resizeWidth=1;labelBackgroundColor=#FFFFFF;labelBorderColor=#FFFFFF;fillColor=#FFFFFF;gradientColor=none;" parent="BHxYfz-5SGwqB7bFT08A-8" vertex="1">
          <mxGeometry width="140" height="20" relative="1" as="geometry">
            <mxPoint y="50" as="offset" />
          </mxGeometry>
        </mxCell>
        <UserObject label="&lt;a href=&quot;null&quot;&gt;{id}{TaskName}&lt;/a&gt;" id="BHxYfz-5SGwqB7bFT08A-11">
          <mxCell style="strokeWidth=1;shadow=0;dashed=0;align=center;html=1;shape=mxgraph.mockup.forms.anchor;fontSize=17;fontColor=#666666;align=left;spacingLeft=5;resizeWidth=1;labelBackgroundColor=#FFFFFF;labelBorderColor=#FFFFFF;fillColor=#FFFFFF;gradientColor=none;" parent="BHxYfz-5SGwqB7bFT08A-8" vertex="1">
            <mxGeometry width="140" height="20" relative="1" as="geometry">
              <mxPoint y="70" as="offset" />
            </mxGeometry>
          </mxCell>
        </UserObject>
        <mxCell id="BHxYfz-5SGwqB7bFT08A-12" value="&lt;a href=&quot;null&quot;&gt;{id}{TaskName}&lt;/a&gt;" style="strokeWidth=1;shadow=0;dashed=0;align=center;html=1;shape=mxgraph.mockup.forms.rrect;rSize=0;fontSize=17;fontColor=#666666;align=left;spacingLeft=5;fillColor=#ddeeff;strokeColor=none;resizeWidth=1;labelBackgroundColor=#FFFFFF;labelBorderColor=#FFFFFF;" parent="BHxYfz-5SGwqB7bFT08A-8" vertex="1">
          <mxGeometry width="140" height="20" relative="1" as="geometry">
            <mxPoint y="90" as="offset" />
          </mxGeometry>
        </mxCell>
        <mxCell id="BHxYfz-5SGwqB7bFT08A-13" value="&lt;a href=&quot;null&quot;&gt;{id}{TaskName}&lt;/a&gt;" style="strokeWidth=1;shadow=0;dashed=0;align=center;html=1;shape=mxgraph.mockup.forms.anchor;fontSize=17;fontColor=#666666;align=left;spacingLeft=5;resizeWidth=1;labelBackgroundColor=#FFFFFF;labelBorderColor=#FFFFFF;fillColor=#FFFFFF;gradientColor=none;" parent="BHxYfz-5SGwqB7bFT08A-8" vertex="1">
          <mxGeometry width="140" height="20" relative="1" as="geometry">
            <mxPoint y="110" as="offset" />
          </mxGeometry>
        </mxCell>
        <UserObject label="" id="BHxYfz-5SGwqB7bFT08A-14">
          <mxCell style="sketch=0;aspect=fixed;pointerEvents=1;shadow=0;dashed=0;html=1;strokeColor=none;labelPosition=center;verticalLabelPosition=bottom;verticalAlign=top;align=center;fillColor=#008CFF;shape=mxgraph.mscae.enterprise.settings;labelBackgroundColor=#008CFF;labelBorderColor=#008CFF;fontSize=11;fontColor=#008CFF;" parent="BHxYfz-5SGwqB7bFT08A-8" vertex="1">
            <mxGeometry x="107.6923076923077" y="10.53" width="23.16" height="23.16" as="geometry" />
          </mxCell>
        </UserObject>
        <object label="+task" id="hnaSzhTGC-2BycCKvce9-3">
          <mxCell style="strokeWidth=1;shadow=0;dashed=0;align=center;html=1;shape=mxgraph.mockup.buttons.button;strokeColor=#666666;fontColor=#ffffff;mainText=;buttonStyle=round;fontSize=17;fontStyle=1;fillColor=#008cff;whiteSpace=wrap;points=[];" parent="BHxYfz-5SGwqB7bFT08A-8" vertex="1">
            <mxGeometry x="15" y="200" width="110" height="30" as="geometry" />
          </mxCell>
        </object>
        <mxCell id="BHxYfz-5SGwqB7bFT08A-15" value="" style="strokeWidth=1;shadow=0;dashed=0;align=center;html=1;shape=mxgraph.mockup.forms.rrect;rSize=0;strokeColor=#999999;fillColor=#ffffff;labelBackgroundColor=#FFFFFF;labelBorderColor=#FFFFFF;fontSize=11;fontColor=#008CFF;" parent="1" vertex="1">
          <mxGeometry x="615" y="260" width="140" height="240" as="geometry" />
        </mxCell>
        <mxCell id="BHxYfz-5SGwqB7bFT08A-16" value="&lt;font style=&quot;font-size: 20px;&quot;&gt;{id} {name}&lt;/font&gt;" style="strokeWidth=1;shadow=0;dashed=0;align=left;html=1;shape=mxgraph.mockup.forms.rrect;rSize=0;strokeColor=#999999;fontColor=#008cff;fontSize=17;fillColor=#ffffff;resizeWidth=1;labelBackgroundColor=#FFFFFF;labelBorderColor=#FFFFFF;" parent="BHxYfz-5SGwqB7bFT08A-15" vertex="1">
          <mxGeometry width="140" height="40" relative="1" as="geometry" />
        </mxCell>
        <mxCell id="BHxYfz-5SGwqB7bFT08A-17" value="&lt;a href=&quot;null&quot;&gt;{id}{TaskName}&lt;/a&gt;" style="strokeWidth=1;shadow=0;dashed=0;align=center;html=1;shape=mxgraph.mockup.forms.anchor;fontSize=17;fontColor=#666666;align=left;spacingLeft=5;resizeWidth=1;labelBackgroundColor=#FFFFFF;labelBorderColor=#FFFFFF;fillColor=#FFFFFF;gradientColor=none;" parent="BHxYfz-5SGwqB7bFT08A-15" vertex="1">
          <mxGeometry width="140" height="20" relative="1" as="geometry">
            <mxPoint y="50" as="offset" />
          </mxGeometry>
        </mxCell>
        <UserObject label="&lt;a href=&quot;null&quot;&gt;{id}{TaskName}&lt;/a&gt;" id="BHxYfz-5SGwqB7bFT08A-18">
          <mxCell style="strokeWidth=1;shadow=0;dashed=0;align=center;html=1;shape=mxgraph.mockup.forms.anchor;fontSize=17;fontColor=#666666;align=left;spacingLeft=5;resizeWidth=1;labelBackgroundColor=#FFFFFF;labelBorderColor=#FFFFFF;fillColor=#FFFFFF;gradientColor=none;" parent="BHxYfz-5SGwqB7bFT08A-15" vertex="1">
            <mxGeometry width="140" height="20" relative="1" as="geometry">
              <mxPoint y="70" as="offset" />
            </mxGeometry>
          </mxCell>
        </UserObject>
        <mxCell id="BHxYfz-5SGwqB7bFT08A-19" value="&lt;a href=&quot;null&quot;&gt;{id}{TaskName}&lt;/a&gt;" style="strokeWidth=1;shadow=0;dashed=0;align=center;html=1;shape=mxgraph.mockup.forms.rrect;rSize=0;fontSize=17;fontColor=#666666;align=left;spacingLeft=5;fillColor=#ddeeff;strokeColor=none;resizeWidth=1;labelBackgroundColor=#FFFFFF;labelBorderColor=#FFFFFF;" parent="BHxYfz-5SGwqB7bFT08A-15" vertex="1">
          <mxGeometry width="140" height="20" relative="1" as="geometry">
            <mxPoint y="90" as="offset" />
          </mxGeometry>
        </mxCell>
        <mxCell id="BHxYfz-5SGwqB7bFT08A-20" value="&lt;a href=&quot;null&quot;&gt;{id}{TaskName}&lt;/a&gt;" style="strokeWidth=1;shadow=0;dashed=0;align=center;html=1;shape=mxgraph.mockup.forms.anchor;fontSize=17;fontColor=#666666;align=left;spacingLeft=5;resizeWidth=1;labelBackgroundColor=#FFFFFF;labelBorderColor=#FFFFFF;fillColor=#FFFFFF;gradientColor=none;" parent="BHxYfz-5SGwqB7bFT08A-15" vertex="1">
          <mxGeometry width="140" height="20" relative="1" as="geometry">
            <mxPoint y="110" as="offset" />
          </mxGeometry>
        </mxCell>
        <UserObject label="" id="BHxYfz-5SGwqB7bFT08A-21">
          <mxCell style="sketch=0;aspect=fixed;pointerEvents=1;shadow=0;dashed=0;html=1;strokeColor=none;labelPosition=center;verticalLabelPosition=bottom;verticalAlign=top;align=center;fillColor=#008CFF;shape=mxgraph.mscae.enterprise.settings;labelBackgroundColor=#008CFF;labelBorderColor=#008CFF;fontSize=11;fontColor=#008CFF;" parent="BHxYfz-5SGwqB7bFT08A-15" vertex="1">
            <mxGeometry x="107.6923076923077" y="10.53" width="23.16" height="23.16" as="geometry" />
          </mxCell>
        </UserObject>
        <object label="+task" id="hnaSzhTGC-2BycCKvce9-4">
          <mxCell style="strokeWidth=1;shadow=0;dashed=0;align=center;html=1;shape=mxgraph.mockup.buttons.button;strokeColor=#666666;fontColor=#ffffff;mainText=;buttonStyle=round;fontSize=17;fontStyle=1;fillColor=#008cff;whiteSpace=wrap;points=[];" parent="BHxYfz-5SGwqB7bFT08A-15" vertex="1">
            <mxGeometry x="15" y="200" width="110" height="30" as="geometry" />
          </mxCell>
        </object>
        <mxCell id="hnaSzhTGC-2BycCKvce9-8" value="" style="whiteSpace=wrap;html=1;fontSize=17;fillColor=#FFFFFF;strokeColor=#666666;fontColor=#ffffff;strokeWidth=1;shadow=0;dashed=0;fontStyle=1;" parent="1" vertex="1">
          <mxGeometry x="400" y="555" width="360" height="240" as="geometry" />
        </mxCell>
        <mxCell id="hnaSzhTGC-2BycCKvce9-9" value="" style="edgeStyle=orthogonalEdgeStyle;rounded=0;orthogonalLoop=1;jettySize=auto;html=1;fontFamily=Helvetica;fontSize=20;fontColor=default;" parent="1" source="hnaSzhTGC-2BycCKvce9-3" target="hnaSzhTGC-2BycCKvce9-8" edge="1">
          <mxGeometry relative="1" as="geometry" />
        </mxCell>
        <mxCell id="hnaSzhTGC-2BycCKvce9-10" value="Task name" style="strokeWidth=1;shadow=0;dashed=0;align=center;html=1;shape=mxgraph.mockup.forms.anchor;fontSize=17;fontColor=#666666;align=left;spacingLeft=5;resizeWidth=1;labelBackgroundColor=#FFFFFF;labelBorderColor=#FFFFFF;fillColor=#FFFFFF;gradientColor=none;" parent="1" vertex="1">
          <mxGeometry x="430" y="590" width="80" height="20" as="geometry" />
        </mxCell>
        <mxCell id="hnaSzhTGC-2BycCKvce9-11" value="order materials" style="strokeWidth=1;shadow=0;dashed=0;align=center;html=1;shape=mxgraph.mockup.forms.pwField;strokeColor=#999999;mainText=;align=left;fontColor=#666666;fontSize=17;spacingLeft=3;labelBackgroundColor=#FFFFFF;labelBorderColor=#FFFFFF;fontFamily=Helvetica;fillColor=#FFFFFF;gradientColor=none;" parent="1" vertex="1">
          <mxGeometry x="560" y="585" width="170" height="30" as="geometry" />
        </mxCell>
        <object label="ok" id="hnaSzhTGC-2BycCKvce9-12">
          <mxCell style="strokeWidth=1;shadow=0;dashed=0;align=center;html=1;shape=mxgraph.mockup.buttons.button;strokeColor=#666666;fontColor=#ffffff;mainText=;buttonStyle=round;fontSize=17;fontStyle=1;fillColor=#008cff;whiteSpace=wrap;points=[];" parent="1" vertex="1">
            <mxGeometry x="525" y="740" width="90" height="30" as="geometry" />
          </mxCell>
        </object>
        <mxCell id="2EWUHtOsWLWS3yeyqx57-1" value="Description" style="strokeWidth=1;shadow=0;dashed=0;align=center;html=1;shape=mxgraph.mockup.forms.anchor;fontSize=17;fontColor=#666666;align=left;spacingLeft=5;resizeWidth=1;labelBackgroundColor=#FFFFFF;labelBorderColor=#FFFFFF;fillColor=#FFFFFF;gradientColor=none;" parent="1" vertex="1">
          <mxGeometry x="430" y="635" width="80" height="20" as="geometry" />
        </mxCell>
        <mxCell id="2EWUHtOsWLWS3yeyqx57-2" value="null" style="strokeWidth=1;shadow=0;dashed=0;align=center;html=1;shape=mxgraph.mockup.forms.pwField;strokeColor=#999999;mainText=;align=left;fontColor=#666666;fontSize=17;spacingLeft=3;labelBackgroundColor=#FFFFFF;labelBorderColor=#FFFFFF;fontFamily=Helvetica;fillColor=#FFFFFF;gradientColor=none;" parent="1" vertex="1">
          <mxGeometry x="560" y="630" width="170" height="30" as="geometry" />
        </mxCell>
      </root>
    </mxGraphModel>
  </diagram>
  <diagram id="69wS8Tps1FHcFWiVdc-3" name="Mockup_Task">
    <mxGraphModel dx="1422" dy="772" grid="1" gridSize="10" guides="1" tooltips="1" connect="1" arrows="1" fold="1" page="1" pageScale="1" pageWidth="827" pageHeight="1169" math="0" shadow="0">
      <root>
        <mxCell id="0" />
        <mxCell id="1" parent="0" />
        <mxCell id="LFobmrWYYdzQhx5X6GH1-32" value="" style="group" parent="1" vertex="1" connectable="0">
          <mxGeometry x="40" y="30" width="760" height="720" as="geometry" />
        </mxCell>
        <UserObject label="" id="RawMVPSGymPBgupfnbGp-1">
          <mxCell style="strokeWidth=1;shadow=0;dashed=0;align=center;html=1;shape=mxgraph.mockup.containers.browserWindow;rSize=0;strokeColor=#008CFF;strokeColor2=#008cff;strokeColor3=#c4c4c4;mainText=,;recursiveResize=0;container=0;" parent="LFobmrWYYdzQhx5X6GH1-32" vertex="1">
            <mxGeometry x="5" y="-5" width="760" height="720" as="geometry" />
          </mxCell>
        </UserObject>
        <mxCell id="RawMVPSGymPBgupfnbGp-2" value="ScrumBoard" style="strokeWidth=1;shadow=0;dashed=0;align=center;html=1;shape=mxgraph.mockup.containers.anchor;fontSize=17;fontColor=#666666;align=left;" parent="LFobmrWYYdzQhx5X6GH1-32" vertex="1">
          <mxGeometry x="60" y="12" width="110" height="26" as="geometry" />
        </mxCell>
        <mxCell id="RawMVPSGymPBgupfnbGp-3" value="https://{home}/login{id}/board{name}/task{id}{name}" style="strokeWidth=1;shadow=0;dashed=0;align=center;html=1;shape=mxgraph.mockup.containers.anchor;rSize=0;fontSize=17;fontColor=#666666;align=left;" parent="LFobmrWYYdzQhx5X6GH1-32" vertex="1">
          <mxGeometry x="131" y="60" width="250" height="26" as="geometry" />
        </mxCell>
        <mxCell id="RawMVPSGymPBgupfnbGp-4" value="" style="verticalLabelPosition=bottom;shadow=0;dashed=0;align=center;html=1;verticalAlign=top;strokeWidth=1;shape=mxgraph.mockup.markup.line;strokeColor=#999999;fontSize=16;" parent="LFobmrWYYdzQhx5X6GH1-32" vertex="1">
          <mxGeometry y="150" width="760" height="20" as="geometry" />
        </mxCell>
        <UserObject label="" link="data:page/id,MvRwfks0NjHCfIFIzfYj" id="RawMVPSGymPBgupfnbGp-5">
          <mxCell style="group" parent="LFobmrWYYdzQhx5X6GH1-32" vertex="1" connectable="0">
            <mxGeometry x="40" y="116" width="120" height="38" as="geometry" />
          </mxCell>
        </UserObject>
        <mxCell id="RawMVPSGymPBgupfnbGp-6" value="Logo" style="strokeWidth=1;shadow=0;dashed=0;align=center;html=1;shape=mxgraph.mockup.buttons.button;mainText=;buttonStyle=round;fontSize=17;fontStyle=1;whiteSpace=wrap;strokeColor=#FFFFFF;fontColor=#008CFF;" parent="RawMVPSGymPBgupfnbGp-5" vertex="1">
          <mxGeometry x="30" y="8" width="90" height="30" as="geometry" />
        </mxCell>
        <mxCell id="RawMVPSGymPBgupfnbGp-7" value="" style="sketch=0;shadow=0;dashed=0;html=1;strokeColor=none;labelPosition=center;verticalLabelPosition=bottom;verticalAlign=top;align=center;shape=mxgraph.mscae.cloud.hockeyapp;fillColor=#0079D6;pointerEvents=1;fontSize=16;fontColor=#008CFF;" parent="RawMVPSGymPBgupfnbGp-5" vertex="1">
          <mxGeometry width="50" height="38" as="geometry" />
        </mxCell>
        <UserObject label="" link="data:page/id,E3jP-nHTplMNk9dZZtZm" id="RawMVPSGymPBgupfnbGp-8">
          <mxCell style="sketch=0;aspect=fixed;pointerEvents=1;shadow=0;dashed=0;html=1;strokeColor=none;labelPosition=center;verticalLabelPosition=bottom;verticalAlign=top;align=center;fillColor=#008CFF;shape=mxgraph.mscae.enterprise.settings;labelBackgroundColor=#008CFF;labelBorderColor=#008CFF;fontSize=11;fontColor=#008CFF;" parent="LFobmrWYYdzQhx5X6GH1-32" vertex="1">
            <mxGeometry x="700" y="119" width="35" height="35" as="geometry" />
          </mxCell>
        </UserObject>
        <object label="Logout" link="data:page/id,Z34OHi6Wktxm36wKiyyq" id="RawMVPSGymPBgupfnbGp-9">
          <mxCell style="strokeWidth=1;shadow=0;dashed=0;align=center;html=1;shape=mxgraph.mockup.buttons.button;strokeColor=#666666;fontColor=#ffffff;mainText=;buttonStyle=round;fontSize=17;fontStyle=1;fillColor=#008cff;whiteSpace=wrap;points=[];" parent="LFobmrWYYdzQhx5X6GH1-32" vertex="1">
            <mxGeometry x="600" y="120" width="90" height="30" as="geometry" />
          </mxCell>
        </object>
        <mxCell id="Nqb4AHGtU4nMmuo6LIfV-1" value="Name" style="strokeWidth=1;shadow=0;dashed=0;align=center;html=1;shape=mxgraph.mockup.forms.anchor;align=right;spacingRight=2;fontColor=#666666;labelBackgroundColor=#FFFFFF;labelBorderColor=none;fontFamily=Helvetica;fontSize=20;fillColor=#FFFFFF;gradientColor=none;" parent="LFobmrWYYdzQhx5X6GH1-32" vertex="1">
          <mxGeometry x="160" y="185" width="50" height="18" as="geometry" />
        </mxCell>
        <mxCell id="Nqb4AHGtU4nMmuo6LIfV-2" value="open case" style="strokeWidth=1;shadow=0;dashed=0;align=center;html=1;shape=mxgraph.mockup.forms.rrect;fillColor=#ffffff;rSize=0;fontColor=#666666;align=left;spacingLeft=3;strokeColor=#999999;labelBackgroundColor=#FFFFFF;labelBorderColor=none;fontFamily=Helvetica;fontSize=20;" parent="LFobmrWYYdzQhx5X6GH1-32" vertex="1">
          <mxGeometry x="210" y="180" width="350" height="30" as="geometry" />
        </mxCell>
        <mxCell id="Nqb4AHGtU4nMmuo6LIfV-3" value="id" style="strokeWidth=1;shadow=0;dashed=0;align=center;html=1;shape=mxgraph.mockup.forms.anchor;align=right;spacingRight=2;fontColor=#666666;labelBackgroundColor=#FFFFFF;labelBorderColor=none;fontFamily=Helvetica;fontSize=20;fillColor=#FFFFFF;gradientColor=none;" parent="LFobmrWYYdzQhx5X6GH1-32" vertex="1">
          <mxGeometry x="160" y="226" width="50" height="18" as="geometry" />
        </mxCell>
        <mxCell id="Nqb4AHGtU4nMmuo6LIfV-4" value="position in column" style="strokeWidth=1;shadow=0;dashed=0;align=center;html=1;shape=mxgraph.mockup.forms.rrect;fillColor=#ffffff;rSize=0;fontColor=#666666;align=left;spacingLeft=3;strokeColor=#999999;labelBackgroundColor=#FFFFFF;labelBorderColor=none;fontFamily=Helvetica;fontSize=20;" parent="LFobmrWYYdzQhx5X6GH1-32" vertex="1">
          <mxGeometry x="210" y="220" width="350" height="30" as="geometry" />
        </mxCell>
        <mxCell id="LFobmrWYYdzQhx5X6GH1-1" value="Description" style="strokeWidth=1;shadow=0;dashed=0;align=center;html=1;shape=mxgraph.mockup.forms.anchor;align=right;spacingRight=2;fontColor=#666666;labelBackgroundColor=#FFFFFF;labelBorderColor=none;fontFamily=Helvetica;fontSize=20;fillColor=#FFFFFF;gradientColor=none;" parent="LFobmrWYYdzQhx5X6GH1-32" vertex="1">
          <mxGeometry x="160" y="266" width="50" height="18" as="geometry" />
        </mxCell>
        <mxCell id="LFobmrWYYdzQhx5X6GH1-2" value="bla bla bla" style="strokeWidth=1;shadow=0;dashed=0;align=center;html=1;shape=mxgraph.mockup.forms.rrect;fillColor=#ffffff;rSize=0;fontColor=#666666;align=left;spacingLeft=3;strokeColor=#999999;labelBackgroundColor=#FFFFFF;labelBorderColor=none;fontFamily=Helvetica;fontSize=20;" parent="LFobmrWYYdzQhx5X6GH1-32" vertex="1">
          <mxGeometry x="210" y="260" width="350" height="190" as="geometry" />
        </mxCell>
        <object label="Change" id="LFobmrWYYdzQhx5X6GH1-9">
          <mxCell style="strokeWidth=1;shadow=0;dashed=0;align=center;html=1;shape=mxgraph.mockup.buttons.button;strokeColor=#666666;fontColor=#ffffff;mainText=;buttonStyle=round;fontSize=17;fontStyle=1;fillColor=#008cff;whiteSpace=wrap;points=[];" parent="LFobmrWYYdzQhx5X6GH1-32" vertex="1">
            <mxGeometry x="570" y="179" width="90" height="30" as="geometry" />
          </mxCell>
        </object>
        <object label="Change" id="LFobmrWYYdzQhx5X6GH1-33">
          <mxCell style="strokeWidth=1;shadow=0;dashed=0;align=center;html=1;shape=mxgraph.mockup.buttons.button;strokeColor=#666666;fontColor=#ffffff;mainText=;buttonStyle=round;fontSize=17;fontStyle=1;fillColor=#008cff;whiteSpace=wrap;points=[];" parent="LFobmrWYYdzQhx5X6GH1-32" vertex="1">
            <mxGeometry x="570" y="220" width="90" height="30" as="geometry" />
          </mxCell>
        </object>
        <object label="Change" id="LFobmrWYYdzQhx5X6GH1-34">
          <mxCell style="strokeWidth=1;shadow=0;dashed=0;align=center;html=1;shape=mxgraph.mockup.buttons.button;strokeColor=#666666;fontColor=#ffffff;mainText=;buttonStyle=round;fontSize=17;fontStyle=1;fillColor=#008cff;whiteSpace=wrap;points=[];" parent="LFobmrWYYdzQhx5X6GH1-32" vertex="1">
            <mxGeometry x="570" y="420" width="90" height="30" as="geometry" />
          </mxCell>
        </object>
        <mxCell id="Tq-6EEKL9kuRDPej4hjS-1" value="Start Data" style="strokeWidth=1;shadow=0;dashed=0;align=center;html=1;shape=mxgraph.mockup.forms.anchor;align=right;spacingRight=2;fontColor=#666666;labelBackgroundColor=#FFFFFF;labelBorderColor=none;fontFamily=Helvetica;fontSize=20;fillColor=#FFFFFF;gradientColor=none;" parent="LFobmrWYYdzQhx5X6GH1-32" vertex="1">
          <mxGeometry x="160" y="470" width="50" height="18" as="geometry" />
        </mxCell>
        <mxCell id="Tq-6EEKL9kuRDPej4hjS-3" value="dd/mm/yyyy" style="strokeWidth=1;shadow=0;dashed=0;align=center;html=1;shape=mxgraph.mockup.forms.rrect;fillColor=#ffffff;rSize=0;fontColor=#666666;align=left;spacingLeft=3;strokeColor=#999999;labelBackgroundColor=#FFFFFF;labelBorderColor=none;fontFamily=Helvetica;fontSize=20;" parent="LFobmrWYYdzQhx5X6GH1-32" vertex="1">
          <mxGeometry x="210" y="464" width="350" height="30" as="geometry" />
        </mxCell>
        <mxCell id="3xQyP-0Mmr1z1B8K4bSp-1" value="Expiration date" style="strokeWidth=1;shadow=0;dashed=0;align=center;html=1;shape=mxgraph.mockup.forms.anchor;align=right;spacingRight=2;fontColor=#666666;labelBackgroundColor=#FFFFFF;labelBorderColor=none;fontFamily=Helvetica;fontSize=20;fillColor=#FFFFFF;gradientColor=none;" parent="LFobmrWYYdzQhx5X6GH1-32" vertex="1">
          <mxGeometry x="150" y="508" width="50" height="18" as="geometry" />
        </mxCell>
        <mxCell id="3xQyP-0Mmr1z1B8K4bSp-3" value="dd/mm/yyyy" style="strokeWidth=1;shadow=0;dashed=0;align=center;html=1;shape=mxgraph.mockup.forms.rrect;fillColor=#ffffff;rSize=0;fontColor=#666666;align=left;spacingLeft=3;strokeColor=#999999;labelBackgroundColor=#FFFFFF;labelBorderColor=none;fontFamily=Helvetica;fontSize=20;" parent="LFobmrWYYdzQhx5X6GH1-32" vertex="1">
          <mxGeometry x="210" y="502" width="350" height="30" as="geometry" />
        </mxCell>
        <object label="Change" id="3xQyP-0Mmr1z1B8K4bSp-4">
          <mxCell style="strokeWidth=1;shadow=0;dashed=0;align=center;html=1;shape=mxgraph.mockup.buttons.button;strokeColor=#666666;fontColor=#ffffff;mainText=;buttonStyle=round;fontSize=17;fontStyle=1;fillColor=#008cff;whiteSpace=wrap;points=[];" parent="LFobmrWYYdzQhx5X6GH1-32" vertex="1">
            <mxGeometry x="570" y="464" width="90" height="30" as="geometry" />
          </mxCell>
        </object>
        <object label="Change" id="3xQyP-0Mmr1z1B8K4bSp-5">
          <mxCell style="strokeWidth=1;shadow=0;dashed=0;align=center;html=1;shape=mxgraph.mockup.buttons.button;strokeColor=#666666;fontColor=#ffffff;mainText=;buttonStyle=round;fontSize=17;fontStyle=1;fillColor=#008cff;whiteSpace=wrap;points=[];" parent="LFobmrWYYdzQhx5X6GH1-32" vertex="1">
            <mxGeometry x="570" y="502" width="90" height="30" as="geometry" />
          </mxCell>
        </object>
        <object label="Add" id="3xQyP-0Mmr1z1B8K4bSp-6">
          <mxCell style="strokeWidth=1;shadow=0;dashed=0;align=center;html=1;shape=mxgraph.mockup.buttons.button;strokeColor=#666666;fontColor=#ffffff;mainText=;buttonStyle=round;fontSize=17;fontStyle=1;fillColor=#008cff;whiteSpace=wrap;points=[];" parent="LFobmrWYYdzQhx5X6GH1-32" vertex="1">
            <mxGeometry x="211" y="550" width="90" height="30" as="geometry" />
          </mxCell>
        </object>
        <mxCell id="3xQyP-0Mmr1z1B8K4bSp-10" value="Add File" style="strokeWidth=1;shadow=0;dashed=0;align=center;html=1;shape=mxgraph.mockup.forms.anchor;align=right;spacingRight=2;fontColor=#666666;labelBackgroundColor=#FFFFFF;labelBorderColor=none;fontFamily=Helvetica;fontSize=20;fillColor=#FFFFFF;gradientColor=none;" parent="LFobmrWYYdzQhx5X6GH1-32" vertex="1">
          <mxGeometry x="150" y="556" width="50" height="18" as="geometry" />
        </mxCell>
        <mxCell id="tqNUEiVPcfX00t_bRwjE-1" value="" style="strokeWidth=1;shadow=0;dashed=0;align=center;html=1;shape=mxgraph.mockup.forms.anchor;align=right;spacingRight=2;fontColor=#666666;labelBackgroundColor=#FFFFFF;labelBorderColor=none;fontFamily=Helvetica;fontSize=20;fillColor=#FFFFFF;gradientColor=none;" vertex="1" parent="LFobmrWYYdzQhx5X6GH1-32">
          <mxGeometry x="150" y="590" width="50" height="18" as="geometry" />
        </mxCell>
        <mxCell id="tqNUEiVPcfX00t_bRwjE-2" value="SendTo@mail" style="strokeWidth=1;shadow=0;dashed=0;align=center;html=1;shape=mxgraph.mockup.forms.anchor;align=right;spacingRight=2;fontColor=#666666;labelBackgroundColor=#FFFFFF;labelBorderColor=none;fontFamily=Helvetica;fontSize=20;fillColor=#FFFFFF;gradientColor=none;" vertex="1" parent="LFobmrWYYdzQhx5X6GH1-32">
          <mxGeometry x="510" y="555" width="50" height="18" as="geometry" />
        </mxCell>
        <object label="Send" id="tqNUEiVPcfX00t_bRwjE-3">
          <mxCell style="strokeWidth=1;shadow=0;dashed=0;align=center;html=1;shape=mxgraph.mockup.buttons.button;strokeColor=#666666;fontColor=#ffffff;mainText=;buttonStyle=round;fontSize=17;fontStyle=1;fillColor=#008cff;whiteSpace=wrap;points=[];" vertex="1" parent="LFobmrWYYdzQhx5X6GH1-32">
            <mxGeometry x="570" y="550" width="90" height="30" as="geometry" />
          </mxCell>
        </object>
        <object label="ok" id="tqNUEiVPcfX00t_bRwjE-34">
          <mxCell style="strokeWidth=1;shadow=0;dashed=0;align=center;html=1;shape=mxgraph.mockup.buttons.button;strokeColor=#666666;fontColor=#ffffff;mainText=;buttonStyle=round;fontSize=17;fontStyle=1;fillColor=#008cff;whiteSpace=wrap;points=[];" vertex="1" parent="LFobmrWYYdzQhx5X6GH1-32">
            <mxGeometry x="570" y="650" width="90" height="30" as="geometry" />
          </mxCell>
        </object>
        <mxCell id="3xQyP-0Mmr1z1B8K4bSp-13" value="" style="whiteSpace=wrap;html=1;fontSize=17;fillColor=#FFFFFF;strokeColor=#666666;fontColor=#ffffff;strokeWidth=1;shadow=0;dashed=0;fontStyle=1;" parent="1" vertex="1">
          <mxGeometry x="200" y="780" width="250" height="230" as="geometry" />
        </mxCell>
        <mxCell id="3xQyP-0Mmr1z1B8K4bSp-14" value="" style="edgeStyle=orthogonalEdgeStyle;rounded=0;orthogonalLoop=1;jettySize=auto;html=1;" parent="1" source="3xQyP-0Mmr1z1B8K4bSp-6" target="3xQyP-0Mmr1z1B8K4bSp-13" edge="1">
          <mxGeometry relative="1" as="geometry">
            <Array as="points">
              <mxPoint x="390" y="595" />
            </Array>
          </mxGeometry>
        </mxCell>
        <mxCell id="3xQyP-0Mmr1z1B8K4bSp-21" value="" style="strokeWidth=1;shadow=0;dashed=0;align=center;html=1;shape=mxgraph.mockup.forms.rrect;rSize=0;strokeColor=#999999;fillColor=#ffffff;" parent="1" vertex="1">
          <mxGeometry x="234" y="800" width="180" height="160" as="geometry" />
        </mxCell>
        <mxCell id="3xQyP-0Mmr1z1B8K4bSp-22" value="File Directory Device" style="strokeWidth=1;shadow=0;dashed=0;align=center;html=1;shape=mxgraph.mockup.forms.rrect;rSize=0;strokeColor=#999999;fontColor=#008cff;fontSize=17;fillColor=#ffffff;resizeWidth=1;" parent="3xQyP-0Mmr1z1B8K4bSp-21" vertex="1">
          <mxGeometry width="179.99999999999997" height="30" relative="1" as="geometry" />
        </mxCell>
        <mxCell id="3xQyP-0Mmr1z1B8K4bSp-23" value="Item 1" style="strokeWidth=1;shadow=0;dashed=0;align=center;html=1;shape=mxgraph.mockup.forms.anchor;fontSize=17;fontColor=#666666;align=left;spacingLeft=5;resizeWidth=1;fillColor=#FFFFFF;" parent="3xQyP-0Mmr1z1B8K4bSp-21" vertex="1">
          <mxGeometry width="179.99999999999997" height="20" relative="1" as="geometry">
            <mxPoint y="30" as="offset" />
          </mxGeometry>
        </mxCell>
        <mxCell id="3xQyP-0Mmr1z1B8K4bSp-24" value="Item 2" style="strokeWidth=1;shadow=0;dashed=0;align=center;html=1;shape=mxgraph.mockup.forms.anchor;fontSize=17;fontColor=#666666;align=left;spacingLeft=5;resizeWidth=1;fillColor=#FFFFFF;" parent="3xQyP-0Mmr1z1B8K4bSp-21" vertex="1">
          <mxGeometry width="179.99999999999997" height="20" relative="1" as="geometry">
            <mxPoint y="50" as="offset" />
          </mxGeometry>
        </mxCell>
        <mxCell id="3xQyP-0Mmr1z1B8K4bSp-25" value="Item 3" style="strokeWidth=1;shadow=0;dashed=0;align=center;html=1;shape=mxgraph.mockup.forms.rrect;rSize=0;fontSize=17;fontColor=#666666;align=left;spacingLeft=5;fillColor=#ddeeff;strokeColor=none;resizeWidth=1;" parent="3xQyP-0Mmr1z1B8K4bSp-21" vertex="1">
          <mxGeometry width="179.99999999999997" height="20" relative="1" as="geometry">
            <mxPoint y="70" as="offset" />
          </mxGeometry>
        </mxCell>
        <mxCell id="3xQyP-0Mmr1z1B8K4bSp-26" value="Item 4" style="strokeWidth=1;shadow=0;dashed=0;align=center;html=1;shape=mxgraph.mockup.forms.anchor;fontSize=17;fontColor=#666666;align=left;spacingLeft=5;resizeWidth=1;fillColor=#FFFFFF;" parent="3xQyP-0Mmr1z1B8K4bSp-21" vertex="1">
          <mxGeometry width="179.99999999999997" height="20" relative="1" as="geometry">
            <mxPoint y="90" as="offset" />
          </mxGeometry>
        </mxCell>
        <object label="Load" id="zdrGMqJLXAs3ys37a7rF-1">
          <mxCell style="strokeWidth=1;shadow=0;dashed=0;align=center;html=1;shape=mxgraph.mockup.buttons.button;strokeColor=#666666;fontColor=#ffffff;mainText=;buttonStyle=round;fontSize=17;fontStyle=1;fillColor=#008cff;whiteSpace=wrap;points=[];" parent="1" vertex="1">
            <mxGeometry x="279" y="970" width="90" height="30" as="geometry" />
          </mxCell>
        </object>
        <mxCell id="tqNUEiVPcfX00t_bRwjE-35" value="&#xa;&lt;span style=&quot;color: rgb(255, 255, 255); font-family: Helvetica; font-size: 17px; font-style: normal; font-variant-ligatures: normal; font-variant-caps: normal; font-weight: 700; letter-spacing: normal; orphans: 2; text-align: center; text-indent: 0px; text-transform: none; widows: 2; word-spacing: 0px; -webkit-text-stroke-width: 0px; background-color: rgb(248, 249, 250); text-decoration-thickness: initial; text-decoration-style: initial; text-decoration-color: initial; float: none; display: inline !important;&quot;&gt;ok&lt;/span&gt;&#xa;&#xa;" style="whiteSpace=wrap;html=1;fontSize=17;fillColor=#FFFFFF;strokeColor=#666666;fontColor=#ffffff;strokeWidth=1;shadow=0;dashed=0;fontStyle=1;" vertex="1" parent="1">
          <mxGeometry x="515" y="780" width="270" height="230" as="geometry" />
        </mxCell>
        <mxCell id="tqNUEiVPcfX00t_bRwjE-36" value="" style="edgeStyle=orthogonalEdgeStyle;rounded=0;orthogonalLoop=1;jettySize=auto;html=1;" edge="1" parent="1" source="tqNUEiVPcfX00t_bRwjE-3" target="tqNUEiVPcfX00t_bRwjE-35">
          <mxGeometry relative="1" as="geometry">
            <Array as="points">
              <mxPoint x="730" y="595" />
            </Array>
          </mxGeometry>
        </mxCell>
        <mxCell id="tqNUEiVPcfX00t_bRwjE-37" value="Header" style="strokeWidth=1;shadow=0;dashed=0;align=center;html=1;shape=mxgraph.mockup.forms.anchor;align=right;spacingRight=2;fontColor=#666666;labelBackgroundColor=#FFFFFF;labelBorderColor=none;fontFamily=Helvetica;fontSize=20;fillColor=#FFFFFF;gradientColor=none;" vertex="1" parent="1">
          <mxGeometry x="550" y="810" width="50" height="18" as="geometry" />
        </mxCell>
        <mxCell id="tqNUEiVPcfX00t_bRwjE-102" value="&amp;nbsp;Whom" style="strokeWidth=1;shadow=0;dashed=0;align=center;html=1;shape=mxgraph.mockup.forms.anchor;align=right;spacingRight=2;fontColor=#666666;labelBackgroundColor=#FFFFFF;labelBorderColor=none;fontFamily=Helvetica;fontSize=20;fillColor=#FFFFFF;gradientColor=none;" vertex="1" parent="1">
          <mxGeometry x="550" y="886" width="50" height="18" as="geometry" />
        </mxCell>
        <mxCell id="tqNUEiVPcfX00t_bRwjE-103" value="123@hmail.com" style="strokeWidth=1;shadow=0;dashed=0;align=center;html=1;shape=mxgraph.mockup.forms.rrect;fillColor=#ffffff;rSize=0;fontColor=#666666;align=left;spacingLeft=3;strokeColor=#999999;labelBackgroundColor=#FFFFFF;labelBorderColor=none;fontFamily=Helvetica;fontSize=20;" vertex="1" parent="1">
          <mxGeometry x="530" y="910" width="240" height="30" as="geometry" />
        </mxCell>
        <mxCell id="tqNUEiVPcfX00t_bRwjE-38" value="{TaskName}" style="strokeWidth=1;shadow=0;dashed=0;align=center;html=1;shape=mxgraph.mockup.forms.rrect;fillColor=#ffffff;rSize=0;fontColor=#666666;align=left;spacingLeft=3;strokeColor=#999999;labelBackgroundColor=#FFFFFF;labelBorderColor=none;fontFamily=Helvetica;fontSize=20;" vertex="1" parent="1">
          <mxGeometry x="530" y="840" width="240" height="30" as="geometry" />
        </mxCell>
        <object label="Send" id="tqNUEiVPcfX00t_bRwjE-107">
          <mxCell style="strokeWidth=1;shadow=0;dashed=0;align=center;html=1;shape=mxgraph.mockup.buttons.button;strokeColor=#666666;fontColor=#ffffff;mainText=;buttonStyle=round;fontSize=17;fontStyle=1;fillColor=#008cff;whiteSpace=wrap;points=[];" vertex="1" parent="1">
            <mxGeometry x="590" y="970" width="90" height="30" as="geometry" />
          </mxCell>
        </object>
      </root>
    </mxGraphModel>
  </diagram>
</mxfile>
